<mxfile host="65bd71144e" pages="2">
    <diagram id="8tf-XHC2aF1VNSttiquC" name="MCD">
        <mxGraphModel dx="858" dy="462" grid="1" gridSize="10" guides="1" tooltips="1" connect="1" arrows="1" fold="1" page="1" pageScale="1" pageWidth="827" pageHeight="1169" math="0" shadow="0">
            <root>
                <mxCell id="0"/>
                <mxCell id="1" parent="0"/>
                <mxCell id="w2Y9lH-BvW_zghAYzRE6-106" style="edgeStyle=orthogonalEdgeStyle;rounded=0;orthogonalLoop=1;jettySize=auto;html=1;entryX=-0.001;entryY=0.403;entryDx=0;entryDy=0;entryPerimeter=0;" parent="1" source="w2Y9lH-BvW_zghAYzRE6-1" target="w2Y9lH-BvW_zghAYzRE6-105" edge="1">
                    <mxGeometry relative="1" as="geometry"/>
                </mxCell>
                <mxCell id="w2Y9lH-BvW_zghAYzRE6-120" style="edgeStyle=orthogonalEdgeStyle;rounded=0;orthogonalLoop=1;jettySize=auto;html=1;" parent="1" source="w2Y9lH-BvW_zghAYzRE6-1" target="w2Y9lH-BvW_zghAYzRE6-119" edge="1">
                    <mxGeometry relative="1" as="geometry">
                        <Array as="points">
                            <mxPoint x="350" y="1010"/>
                        </Array>
                    </mxGeometry>
                </mxCell>
                <mxCell id="w2Y9lH-BvW_zghAYzRE6-122" value="0,n" style="edgeLabel;html=1;align=center;verticalAlign=middle;resizable=0;points=[];" parent="w2Y9lH-BvW_zghAYzRE6-120" vertex="1" connectable="0">
                    <mxGeometry x="-0.9438" y="-1" relative="1" as="geometry">
                        <mxPoint x="-19" y="-2" as="offset"/>
                    </mxGeometry>
                </mxCell>
                <mxCell id="w2Y9lH-BvW_zghAYzRE6-127" style="edgeStyle=orthogonalEdgeStyle;rounded=0;orthogonalLoop=1;jettySize=auto;html=1;entryX=0.009;entryY=0.645;entryDx=0;entryDy=0;entryPerimeter=0;" parent="1" source="w2Y9lH-BvW_zghAYzRE6-1" target="w2Y9lH-BvW_zghAYzRE6-125" edge="1">
                    <mxGeometry relative="1" as="geometry">
                        <Array as="points">
                            <mxPoint x="480" y="816"/>
                            <mxPoint x="480" y="816"/>
                        </Array>
                    </mxGeometry>
                </mxCell>
                <mxCell id="w2Y9lH-BvW_zghAYzRE6-1" value="Média" style="swimlane;fontStyle=0;childLayout=stackLayout;horizontal=1;startSize=26;horizontalStack=0;resizeParent=1;resizeParentMax=0;resizeLast=0;collapsible=1;marginBottom=0;align=center;fontSize=14;" parent="1" vertex="1">
                    <mxGeometry x="320" y="480.45" width="160" height="416" as="geometry">
                        <mxRectangle x="380" y="240" width="60" height="26" as="alternateBounds"/>
                    </mxGeometry>
                </mxCell>
                <mxCell id="w2Y9lH-BvW_zghAYzRE6-2" value="Titre" style="text;strokeColor=none;fillColor=none;spacingLeft=4;spacingRight=4;overflow=hidden;rotatable=0;points=[[0,0.5],[1,0.5]];portConstraint=eastwest;fontSize=12;fontStyle=4" parent="w2Y9lH-BvW_zghAYzRE6-1" vertex="1">
                    <mxGeometry y="26" width="160" height="30" as="geometry"/>
                </mxCell>
                <mxCell id="w2Y9lH-BvW_zghAYzRE6-3" value="Genre(s)" style="text;strokeColor=none;fillColor=none;spacingLeft=4;spacingRight=4;overflow=hidden;rotatable=0;points=[[0,0.5],[1,0.5]];portConstraint=eastwest;fontSize=12;" parent="w2Y9lH-BvW_zghAYzRE6-1" vertex="1">
                    <mxGeometry y="56" width="160" height="30" as="geometry"/>
                </mxCell>
                <mxCell id="w2Y9lH-BvW_zghAYzRE6-17" value="Nombre d'épisodes" style="text;strokeColor=none;fillColor=none;spacingLeft=4;spacingRight=4;overflow=hidden;rotatable=0;points=[[0,0.5],[1,0.5]];portConstraint=eastwest;fontSize=12;" parent="w2Y9lH-BvW_zghAYzRE6-1" vertex="1">
                    <mxGeometry y="86" width="160" height="30" as="geometry"/>
                </mxCell>
                <mxCell id="w2Y9lH-BvW_zghAYzRE6-12" value="Durée totale de visionnage" style="text;strokeColor=none;fillColor=none;spacingLeft=4;spacingRight=4;overflow=hidden;rotatable=0;points=[[0,0.5],[1,0.5]];portConstraint=eastwest;fontSize=12;" parent="w2Y9lH-BvW_zghAYzRE6-1" vertex="1">
                    <mxGeometry y="116" width="160" height="30" as="geometry"/>
                </mxCell>
                <mxCell id="w2Y9lH-BvW_zghAYzRE6-13" value="Année de début" style="text;strokeColor=none;fillColor=none;spacingLeft=4;spacingRight=4;overflow=hidden;rotatable=0;points=[[0,0.5],[1,0.5]];portConstraint=eastwest;fontSize=12;" parent="w2Y9lH-BvW_zghAYzRE6-1" vertex="1">
                    <mxGeometry y="146" width="160" height="30" as="geometry"/>
                </mxCell>
                <mxCell id="w2Y9lH-BvW_zghAYzRE6-19" value="Année de fin" style="text;strokeColor=none;fillColor=none;spacingLeft=4;spacingRight=4;overflow=hidden;rotatable=0;points=[[0,0.5],[1,0.5]];portConstraint=eastwest;fontSize=12;" parent="w2Y9lH-BvW_zghAYzRE6-1" vertex="1">
                    <mxGeometry y="176" width="160" height="30" as="geometry"/>
                </mxCell>
                <mxCell id="w2Y9lH-BvW_zghAYzRE6-20" value="Status" style="text;strokeColor=none;fillColor=none;spacingLeft=4;spacingRight=4;overflow=hidden;rotatable=0;points=[[0,0.5],[1,0.5]];portConstraint=eastwest;fontSize=12;" parent="w2Y9lH-BvW_zghAYzRE6-1" vertex="1">
                    <mxGeometry y="206" width="160" height="30" as="geometry"/>
                </mxCell>
                <mxCell id="w2Y9lH-BvW_zghAYzRE6-4" value="Durée" style="text;strokeColor=none;fillColor=none;spacingLeft=4;spacingRight=4;overflow=hidden;rotatable=0;points=[[0,0.5],[1,0.5]];portConstraint=eastwest;fontSize=12;" parent="w2Y9lH-BvW_zghAYzRE6-1" vertex="1">
                    <mxGeometry y="236" width="160" height="30" as="geometry"/>
                </mxCell>
                <mxCell id="w2Y9lH-BvW_zghAYzRE6-5" value="Année" style="text;strokeColor=none;fillColor=none;spacingLeft=4;spacingRight=4;overflow=hidden;rotatable=0;points=[[0,0.5],[1,0.5]];portConstraint=eastwest;fontSize=12;" parent="w2Y9lH-BvW_zghAYzRE6-1" vertex="1">
                    <mxGeometry y="266" width="160" height="30" as="geometry"/>
                </mxCell>
                <mxCell id="w2Y9lH-BvW_zghAYzRE6-6" value="Réalisateur" style="text;strokeColor=none;fillColor=none;spacingLeft=4;spacingRight=4;overflow=hidden;rotatable=0;points=[[0,0.5],[1,0.5]];portConstraint=eastwest;fontSize=12;" parent="w2Y9lH-BvW_zghAYzRE6-1" vertex="1">
                    <mxGeometry y="296" width="160" height="30" as="geometry"/>
                </mxCell>
                <mxCell id="w2Y9lH-BvW_zghAYzRE6-7" value="Acteurs" style="text;strokeColor=none;fillColor=none;spacingLeft=4;spacingRight=4;overflow=hidden;rotatable=0;points=[[0,0.5],[1,0.5]];portConstraint=eastwest;fontSize=12;" parent="w2Y9lH-BvW_zghAYzRE6-1" vertex="1">
                    <mxGeometry y="326" width="160" height="30" as="geometry"/>
                </mxCell>
                <mxCell id="w2Y9lH-BvW_zghAYzRE6-8" value="Description" style="text;strokeColor=none;fillColor=none;spacingLeft=4;spacingRight=4;overflow=hidden;rotatable=0;points=[[0,0.5],[1,0.5]];portConstraint=eastwest;fontSize=12;" parent="w2Y9lH-BvW_zghAYzRE6-1" vertex="1">
                    <mxGeometry y="356" width="160" height="30" as="geometry"/>
                </mxCell>
                <mxCell id="sYq2-ySuj6Pt89tF3zaP-1" value="Type" style="text;strokeColor=none;fillColor=none;spacingLeft=4;spacingRight=4;overflow=hidden;rotatable=0;points=[[0,0.5],[1,0.5]];portConstraint=eastwest;fontSize=12;" parent="w2Y9lH-BvW_zghAYzRE6-1" vertex="1">
                    <mxGeometry y="386" width="160" height="30" as="geometry"/>
                </mxCell>
                <mxCell id="w2Y9lH-BvW_zghAYzRE6-100" style="edgeStyle=orthogonalEdgeStyle;rounded=0;orthogonalLoop=1;jettySize=auto;html=1;exitX=0;exitY=0;exitDx=0;exitDy=0;entryX=0.223;entryY=0.024;entryDx=0;entryDy=0;entryPerimeter=0;" parent="1" source="w2Y9lH-BvW_zghAYzRE6-21" target="w2Y9lH-BvW_zghAYzRE6-98" edge="1">
                    <mxGeometry relative="1" as="geometry">
                        <Array as="points">
                            <mxPoint x="640" y="530"/>
                            <mxPoint x="512" y="530"/>
                            <mxPoint x="512" y="680"/>
                        </Array>
                    </mxGeometry>
                </mxCell>
                <mxCell id="w2Y9lH-BvW_zghAYzRE6-21" value="Utilisateur" style="swimlane;fontStyle=0;childLayout=stackLayout;horizontal=1;startSize=26;horizontalStack=0;resizeParent=1;resizeParentMax=0;resizeLast=0;collapsible=1;marginBottom=0;align=center;fontSize=14;" parent="1" vertex="1">
                    <mxGeometry x="640" y="480" width="160" height="296" as="geometry">
                        <mxRectangle x="380" y="240" width="60" height="26" as="alternateBounds"/>
                    </mxGeometry>
                </mxCell>
                <mxCell id="w2Y9lH-BvW_zghAYzRE6-22" value="Pseudo" style="text;strokeColor=none;fillColor=none;spacingLeft=4;spacingRight=4;overflow=hidden;rotatable=0;points=[[0,0.5],[1,0.5]];portConstraint=eastwest;fontSize=12;fontStyle=4" parent="w2Y9lH-BvW_zghAYzRE6-21" vertex="1">
                    <mxGeometry y="26" width="160" height="30" as="geometry"/>
                </mxCell>
                <mxCell id="w2Y9lH-BvW_zghAYzRE6-23" value="Nom" style="text;strokeColor=none;fillColor=none;spacingLeft=4;spacingRight=4;overflow=hidden;rotatable=0;points=[[0,0.5],[1,0.5]];portConstraint=eastwest;fontSize=12;" parent="w2Y9lH-BvW_zghAYzRE6-21" vertex="1">
                    <mxGeometry y="56" width="160" height="30" as="geometry"/>
                </mxCell>
                <mxCell id="w2Y9lH-BvW_zghAYzRE6-24" value="Prénom" style="text;strokeColor=none;fillColor=none;spacingLeft=4;spacingRight=4;overflow=hidden;rotatable=0;points=[[0,0.5],[1,0.5]];portConstraint=eastwest;fontSize=12;" parent="w2Y9lH-BvW_zghAYzRE6-21" vertex="1">
                    <mxGeometry y="86" width="160" height="30" as="geometry"/>
                </mxCell>
                <mxCell id="w2Y9lH-BvW_zghAYzRE6-25" value="Avatar" style="text;strokeColor=none;fillColor=none;spacingLeft=4;spacingRight=4;overflow=hidden;rotatable=0;points=[[0,0.5],[1,0.5]];portConstraint=eastwest;fontSize=12;" parent="w2Y9lH-BvW_zghAYzRE6-21" vertex="1">
                    <mxGeometry y="116" width="160" height="30" as="geometry"/>
                </mxCell>
                <mxCell id="w2Y9lH-BvW_zghAYzRE6-26" value="Email" style="text;strokeColor=none;fillColor=none;spacingLeft=4;spacingRight=4;overflow=hidden;rotatable=0;points=[[0,0.5],[1,0.5]];portConstraint=eastwest;fontSize=12;" parent="w2Y9lH-BvW_zghAYzRE6-21" vertex="1">
                    <mxGeometry y="146" width="160" height="30" as="geometry"/>
                </mxCell>
                <mxCell id="w2Y9lH-BvW_zghAYzRE6-27" value="Mdp" style="text;strokeColor=none;fillColor=none;spacingLeft=4;spacingRight=4;overflow=hidden;rotatable=0;points=[[0,0.5],[1,0.5]];portConstraint=eastwest;fontSize=12;" parent="w2Y9lH-BvW_zghAYzRE6-21" vertex="1">
                    <mxGeometry y="176" width="160" height="30" as="geometry"/>
                </mxCell>
                <mxCell id="w2Y9lH-BvW_zghAYzRE6-28" value="Status" style="text;strokeColor=none;fillColor=none;spacingLeft=4;spacingRight=4;overflow=hidden;rotatable=0;points=[[0,0.5],[1,0.5]];portConstraint=eastwest;fontSize=12;" parent="w2Y9lH-BvW_zghAYzRE6-21" vertex="1">
                    <mxGeometry y="206" width="160" height="30" as="geometry"/>
                </mxCell>
                <mxCell id="1XTlE_3aXD13mrpszqr8-1" value="Date bloqué" style="text;strokeColor=none;fillColor=none;spacingLeft=4;spacingRight=4;overflow=hidden;rotatable=0;points=[[0,0.5],[1,0.5]];portConstraint=eastwest;fontSize=12;" parent="w2Y9lH-BvW_zghAYzRE6-21" vertex="1">
                    <mxGeometry y="236" width="160" height="30" as="geometry"/>
                </mxCell>
                <mxCell id="1cqJ-1RlbX01CFLk2TwJ-1" value="Date débloqué" style="text;strokeColor=none;fillColor=none;spacingLeft=4;spacingRight=4;overflow=hidden;rotatable=0;points=[[0,0.5],[1,0.5]];portConstraint=eastwest;fontSize=12;" parent="w2Y9lH-BvW_zghAYzRE6-21" vertex="1">
                    <mxGeometry y="266" width="160" height="30" as="geometry"/>
                </mxCell>
                <mxCell id="w2Y9lH-BvW_zghAYzRE6-42" style="edgeStyle=orthogonalEdgeStyle;rounded=0;orthogonalLoop=1;jettySize=auto;html=1;entryX=1;entryY=0.5;entryDx=0;entryDy=0;" parent="1" source="w2Y9lH-BvW_zghAYzRE6-29" target="w2Y9lH-BvW_zghAYzRE6-38" edge="1">
                    <mxGeometry relative="1" as="geometry">
                        <mxPoint x="936.9999999999998" y="430" as="targetPoint"/>
                        <Array as="points">
                            <mxPoint x="990" y="430"/>
                        </Array>
                    </mxGeometry>
                </mxCell>
                <mxCell id="w2Y9lH-BvW_zghAYzRE6-45" value="0,n" style="edgeLabel;html=1;align=center;verticalAlign=middle;resizable=0;points=[];" parent="w2Y9lH-BvW_zghAYzRE6-42" vertex="1" connectable="0">
                    <mxGeometry x="-0.2945" y="7" relative="1" as="geometry">
                        <mxPoint x="-242" y="27" as="offset"/>
                    </mxGeometry>
                </mxCell>
                <mxCell id="w2Y9lH-BvW_zghAYzRE6-47" style="edgeStyle=orthogonalEdgeStyle;rounded=0;orthogonalLoop=1;jettySize=auto;html=1;" parent="1" source="w2Y9lH-BvW_zghAYzRE6-29" edge="1">
                    <mxGeometry relative="1" as="geometry">
                        <mxPoint x="800" y="945" as="targetPoint"/>
                        <Array as="points">
                            <mxPoint x="1020" y="945"/>
                        </Array>
                    </mxGeometry>
                </mxCell>
                <mxCell id="w2Y9lH-BvW_zghAYzRE6-50" value="0.n" style="edgeLabel;html=1;align=center;verticalAlign=middle;resizable=0;points=[];" parent="w2Y9lH-BvW_zghAYzRE6-47" vertex="1" connectable="0">
                    <mxGeometry x="-0.9332" y="-1" relative="1" as="geometry">
                        <mxPoint x="21" as="offset"/>
                    </mxGeometry>
                </mxCell>
                <mxCell id="w2Y9lH-BvW_zghAYzRE6-72" style="edgeStyle=orthogonalEdgeStyle;rounded=0;orthogonalLoop=1;jettySize=auto;html=1;entryX=1;entryY=0.5;entryDx=0;entryDy=0;" parent="1" source="w2Y9lH-BvW_zghAYzRE6-29" target="w2Y9lH-BvW_zghAYzRE6-71" edge="1">
                    <mxGeometry relative="1" as="geometry">
                        <mxPoint x="929.9999999999936" y="770" as="targetPoint"/>
                        <Array as="points">
                            <mxPoint x="990" y="820"/>
                        </Array>
                    </mxGeometry>
                </mxCell>
                <mxCell id="w2Y9lH-BvW_zghAYzRE6-77" value="1,1" style="edgeLabel;html=1;align=center;verticalAlign=middle;resizable=0;points=[];" parent="w2Y9lH-BvW_zghAYzRE6-72" vertex="1" connectable="0">
                    <mxGeometry x="-0.4819" y="-1" relative="1" as="geometry">
                        <mxPoint x="-19" y="-33" as="offset"/>
                    </mxGeometry>
                </mxCell>
                <mxCell id="w2Y9lH-BvW_zghAYzRE6-29" value="Playlist" style="swimlane;fontStyle=0;childLayout=stackLayout;horizontal=1;startSize=26;horizontalStack=0;resizeParent=1;resizeParentMax=0;resizeLast=0;collapsible=1;marginBottom=0;align=center;fontSize=14;" parent="1" vertex="1">
                    <mxGeometry x="910" y="480" width="160" height="170" as="geometry">
                        <mxRectangle x="380" y="240" width="60" height="26" as="alternateBounds"/>
                    </mxGeometry>
                </mxCell>
                <mxCell id="w2Y9lH-BvW_zghAYzRE6-117" value="ID" style="text;strokeColor=none;fillColor=none;spacingLeft=4;spacingRight=4;overflow=hidden;rotatable=0;points=[[0,0.5],[1,0.5]];portConstraint=eastwest;fontSize=12;fontStyle=4" parent="w2Y9lH-BvW_zghAYzRE6-29" vertex="1">
                    <mxGeometry y="26" width="160" height="30" as="geometry"/>
                </mxCell>
                <mxCell id="w2Y9lH-BvW_zghAYzRE6-30" value="Utilisateur" style="text;strokeColor=none;fillColor=none;spacingLeft=4;spacingRight=4;overflow=hidden;rotatable=0;points=[[0,0.5],[1,0.5]];portConstraint=eastwest;fontSize=12;" parent="w2Y9lH-BvW_zghAYzRE6-29" vertex="1">
                    <mxGeometry y="56" width="160" height="30" as="geometry"/>
                </mxCell>
                <mxCell id="w2Y9lH-BvW_zghAYzRE6-31" value="Nom" style="text;strokeColor=none;fillColor=none;spacingLeft=4;spacingRight=4;overflow=hidden;rotatable=0;points=[[0,0.5],[1,0.5]];portConstraint=eastwest;fontSize=12;fontStyle=0" parent="w2Y9lH-BvW_zghAYzRE6-29" vertex="1">
                    <mxGeometry y="86" width="160" height="30" as="geometry"/>
                </mxCell>
                <mxCell id="w2Y9lH-BvW_zghAYzRE6-32" value="Status" style="text;strokeColor=none;fillColor=none;spacingLeft=4;spacingRight=4;overflow=hidden;rotatable=0;points=[[0,0.5],[1,0.5]];portConstraint=eastwest;fontSize=12;" parent="w2Y9lH-BvW_zghAYzRE6-29" vertex="1">
                    <mxGeometry y="116" width="160" height="30" as="geometry"/>
                </mxCell>
                <mxCell id="w2Y9lH-BvW_zghAYzRE6-33" value="Etat" style="text;strokeColor=none;fillColor=none;spacingLeft=4;spacingRight=4;overflow=hidden;rotatable=0;points=[[0,0.5],[1,0.5]];portConstraint=eastwest;fontSize=12;" parent="w2Y9lH-BvW_zghAYzRE6-29" vertex="1">
                    <mxGeometry y="146" width="160" height="24" as="geometry"/>
                </mxCell>
                <mxCell id="w2Y9lH-BvW_zghAYzRE6-43" style="edgeStyle=orthogonalEdgeStyle;rounded=0;orthogonalLoop=1;jettySize=auto;html=1;exitX=0;exitY=0.5;exitDx=0;exitDy=0;" parent="1" source="w2Y9lH-BvW_zghAYzRE6-38" target="w2Y9lH-BvW_zghAYzRE6-21" edge="1">
                    <mxGeometry relative="1" as="geometry"/>
                </mxCell>
                <mxCell id="w2Y9lH-BvW_zghAYzRE6-44" value="1,n" style="edgeLabel;html=1;align=center;verticalAlign=middle;resizable=0;points=[];" parent="w2Y9lH-BvW_zghAYzRE6-43" vertex="1" connectable="0">
                    <mxGeometry x="-0.2212" y="11" relative="1" as="geometry">
                        <mxPoint x="253" y="29" as="offset"/>
                    </mxGeometry>
                </mxCell>
                <mxCell id="w2Y9lH-BvW_zghAYzRE6-38" value="&lt;div&gt;Abonné&lt;/div&gt;" style="ellipse;whiteSpace=wrap;html=1;align=center;" parent="1" vertex="1">
                    <mxGeometry x="797" y="410" width="100" height="40" as="geometry"/>
                </mxCell>
                <mxCell id="w2Y9lH-BvW_zghAYzRE6-69" style="edgeStyle=orthogonalEdgeStyle;rounded=0;orthogonalLoop=1;jettySize=auto;html=1;entryX=0.469;entryY=1.116;entryDx=0;entryDy=0;entryPerimeter=0;" parent="1" source="w2Y9lH-BvW_zghAYzRE6-46" target="sYq2-ySuj6Pt89tF3zaP-1" edge="1">
                    <mxGeometry relative="1" as="geometry">
                        <mxPoint x="392" y="920" as="targetPoint"/>
                        <Array as="points">
                            <mxPoint x="395" y="945"/>
                        </Array>
                    </mxGeometry>
                </mxCell>
                <mxCell id="w2Y9lH-BvW_zghAYzRE6-46" value="Appartient" style="ellipse;whiteSpace=wrap;html=1;align=center;" parent="1" vertex="1">
                    <mxGeometry x="697" y="925" width="100" height="40" as="geometry"/>
                </mxCell>
                <mxCell id="w2Y9lH-BvW_zghAYzRE6-86" style="edgeStyle=orthogonalEdgeStyle;rounded=0;orthogonalLoop=1;jettySize=auto;html=1;entryX=1;entryY=0.5;entryDx=0;entryDy=0;" parent="1" source="w2Y9lH-BvW_zghAYzRE6-53" target="w2Y9lH-BvW_zghAYzRE6-83" edge="1">
                    <mxGeometry relative="1" as="geometry">
                        <mxPoint x="890.0000000000002" y="330" as="targetPoint"/>
                        <Array as="points">
                            <mxPoint x="1190" y="340"/>
                        </Array>
                    </mxGeometry>
                </mxCell>
                <mxCell id="w2Y9lH-BvW_zghAYzRE6-88" value="0,n" style="edgeLabel;html=1;align=center;verticalAlign=middle;resizable=0;points=[];" parent="w2Y9lH-BvW_zghAYzRE6-86" vertex="1" connectable="0">
                    <mxGeometry x="-0.92" y="-2" relative="1" as="geometry">
                        <mxPoint x="8" y="8" as="offset"/>
                    </mxGeometry>
                </mxCell>
                <mxCell id="w2Y9lH-BvW_zghAYzRE6-87" style="edgeStyle=orthogonalEdgeStyle;rounded=0;orthogonalLoop=1;jettySize=auto;html=1;exitX=0.25;exitY=0;exitDx=0;exitDy=0;" parent="1" source="w2Y9lH-BvW_zghAYzRE6-53" target="w2Y9lH-BvW_zghAYzRE6-62" edge="1">
                    <mxGeometry relative="1" as="geometry">
                        <Array as="points">
                            <mxPoint x="1150" y="390"/>
                        </Array>
                    </mxGeometry>
                </mxCell>
                <mxCell id="w2Y9lH-BvW_zghAYzRE6-53" value="Commentaire" style="swimlane;fontStyle=0;childLayout=stackLayout;horizontal=1;startSize=26;horizontalStack=0;resizeParent=1;resizeParentMax=0;resizeLast=0;collapsible=1;marginBottom=0;align=center;fontSize=14;" parent="1" vertex="1">
                    <mxGeometry x="1110" y="480" width="160" height="222" as="geometry">
                        <mxRectangle x="380" y="240" width="60" height="26" as="alternateBounds"/>
                    </mxGeometry>
                </mxCell>
                <mxCell id="w2Y9lH-BvW_zghAYzRE6-60" value="ID" style="text;strokeColor=none;fillColor=none;spacingLeft=4;spacingRight=4;overflow=hidden;rotatable=0;points=[[0,0.5],[1,0.5]];portConstraint=eastwest;fontSize=12;fontStyle=4" parent="w2Y9lH-BvW_zghAYzRE6-53" vertex="1">
                    <mxGeometry y="26" width="160" height="30" as="geometry"/>
                </mxCell>
                <mxCell id="w2Y9lH-BvW_zghAYzRE6-56" value="titre" style="text;strokeColor=none;fillColor=none;spacingLeft=4;spacingRight=4;overflow=hidden;rotatable=0;points=[[0,0.5],[1,0.5]];portConstraint=eastwest;fontSize=12;" parent="w2Y9lH-BvW_zghAYzRE6-53" vertex="1">
                    <mxGeometry y="56" width="160" height="30" as="geometry"/>
                </mxCell>
                <mxCell id="w2Y9lH-BvW_zghAYzRE6-57" value="texte" style="text;strokeColor=none;fillColor=none;spacingLeft=4;spacingRight=4;overflow=hidden;rotatable=0;points=[[0,0.5],[1,0.5]];portConstraint=eastwest;fontSize=12;" parent="w2Y9lH-BvW_zghAYzRE6-53" vertex="1">
                    <mxGeometry y="86" width="160" height="34" as="geometry"/>
                </mxCell>
                <mxCell id="w2Y9lH-BvW_zghAYzRE6-58" value="Nombre de réponses" style="text;strokeColor=none;fillColor=none;spacingLeft=4;spacingRight=4;overflow=hidden;rotatable=0;points=[[0,0.5],[1,0.5]];portConstraint=eastwest;fontSize=12;" parent="w2Y9lH-BvW_zghAYzRE6-53" vertex="1">
                    <mxGeometry y="120" width="160" height="34" as="geometry"/>
                </mxCell>
                <mxCell id="w2Y9lH-BvW_zghAYzRE6-59" value="commentaire parent" style="text;strokeColor=none;fillColor=none;spacingLeft=4;spacingRight=4;overflow=hidden;rotatable=0;points=[[0,0.5],[1,0.5]];portConstraint=eastwest;fontSize=12;" parent="w2Y9lH-BvW_zghAYzRE6-53" vertex="1">
                    <mxGeometry y="154" width="160" height="34" as="geometry"/>
                </mxCell>
                <mxCell id="nPhygnXzOba6I9fE0yGV-1" value="est signalé" style="text;strokeColor=none;fillColor=none;spacingLeft=4;spacingRight=4;overflow=hidden;rotatable=0;points=[[0,0.5],[1,0.5]];portConstraint=eastwest;fontSize=12;" parent="w2Y9lH-BvW_zghAYzRE6-53" vertex="1">
                    <mxGeometry y="188" width="160" height="34" as="geometry"/>
                </mxCell>
                <mxCell id="w2Y9lH-BvW_zghAYzRE6-64" style="edgeStyle=orthogonalEdgeStyle;rounded=0;orthogonalLoop=1;jettySize=auto;html=1;exitX=0;exitY=0.5;exitDx=0;exitDy=0;" parent="1" source="w2Y9lH-BvW_zghAYzRE6-62" edge="1">
                    <mxGeometry relative="1" as="geometry">
                        <mxPoint x="700" y="480" as="targetPoint"/>
                        <Array as="points">
                            <mxPoint x="700" y="390"/>
                            <mxPoint x="700" y="480"/>
                        </Array>
                    </mxGeometry>
                </mxCell>
                <mxCell id="w2Y9lH-BvW_zghAYzRE6-67" value="1,1" style="edgeLabel;html=1;align=center;verticalAlign=middle;resizable=0;points=[];" parent="w2Y9lH-BvW_zghAYzRE6-64" vertex="1" connectable="0">
                    <mxGeometry x="0.8693" relative="1" as="geometry">
                        <mxPoint x="400" y="7" as="offset"/>
                    </mxGeometry>
                </mxCell>
                <mxCell id="w2Y9lH-BvW_zghAYzRE6-62" value="&lt;div&gt;écrit&lt;/div&gt;" style="ellipse;whiteSpace=wrap;html=1;align=center;" parent="1" vertex="1">
                    <mxGeometry x="900" y="370" width="100" height="40" as="geometry"/>
                </mxCell>
                <mxCell id="w2Y9lH-BvW_zghAYzRE6-70" value="0.n" style="edgeLabel;html=1;align=center;verticalAlign=middle;resizable=0;points=[];" parent="1" vertex="1" connectable="0">
                    <mxGeometry x="370.0044827586207" y="925.0020689655173" as="geometry">
                        <mxPoint x="45" y="-17" as="offset"/>
                    </mxGeometry>
                </mxCell>
                <mxCell id="w2Y9lH-BvW_zghAYzRE6-73" style="edgeStyle=orthogonalEdgeStyle;rounded=0;orthogonalLoop=1;jettySize=auto;html=1;" parent="1" edge="1">
                    <mxGeometry relative="1" as="geometry">
                        <mxPoint x="790.0002162634432" y="820.1288235294118" as="sourcePoint"/>
                        <mxPoint x="710" y="780" as="targetPoint"/>
                        <Array as="points">
                            <mxPoint x="710" y="820.07"/>
                            <mxPoint x="710" y="780.07"/>
                        </Array>
                    </mxGeometry>
                </mxCell>
                <mxCell id="w2Y9lH-BvW_zghAYzRE6-75" value="0,n" style="edgeLabel;html=1;align=center;verticalAlign=middle;resizable=0;points=[];" parent="w2Y9lH-BvW_zghAYzRE6-73" vertex="1" connectable="0">
                    <mxGeometry x="0.7335" y="-3" relative="1" as="geometry">
                        <mxPoint x="17" y="-3" as="offset"/>
                    </mxGeometry>
                </mxCell>
                <mxCell id="w2Y9lH-BvW_zghAYzRE6-71" value="&lt;div&gt;Possède&lt;/div&gt;-date" style="ellipse;whiteSpace=wrap;html=1;" parent="1" vertex="1">
                    <mxGeometry x="790" y="800" width="100" height="40" as="geometry"/>
                </mxCell>
                <mxCell id="w2Y9lH-BvW_zghAYzRE6-103" style="edgeStyle=orthogonalEdgeStyle;rounded=0;orthogonalLoop=1;jettySize=auto;html=1;entryX=0.195;entryY=0;entryDx=0;entryDy=0;entryPerimeter=0;" parent="1" source="w2Y9lH-BvW_zghAYzRE6-83" target="w2Y9lH-BvW_zghAYzRE6-21" edge="1">
                    <mxGeometry relative="1" as="geometry">
                        <Array as="points">
                            <mxPoint x="671" y="340"/>
                        </Array>
                    </mxGeometry>
                </mxCell>
                <mxCell id="w2Y9lH-BvW_zghAYzRE6-83" value="&lt;div&gt;Modérer&lt;br&gt;&lt;/div&gt;&lt;div&gt;-date&lt;/div&gt;&lt;div&gt;-message&lt;br&gt;&lt;/div&gt;" style="ellipse;whiteSpace=wrap;html=1;align=center;" parent="1" vertex="1">
                    <mxGeometry x="750" y="310" width="100" height="60" as="geometry"/>
                </mxCell>
                <mxCell id="w2Y9lH-BvW_zghAYzRE6-89" value="0,n" style="edgeLabel;html=1;align=center;verticalAlign=middle;resizable=0;points=[];" parent="1" vertex="1" connectable="0">
                    <mxGeometry x="1050.0044827586205" y="489.9989655172413" as="geometry">
                        <mxPoint x="-325" y="-23" as="offset"/>
                    </mxGeometry>
                </mxCell>
                <mxCell id="w2Y9lH-BvW_zghAYzRE6-90" value="0,n" style="edgeLabel;html=1;align=center;verticalAlign=middle;resizable=0;points=[];" parent="1" vertex="1" connectable="0">
                    <mxGeometry x="770.0044827586207" y="479.99827586206897" as="geometry">
                        <mxPoint x="-83" y="-13" as="offset"/>
                    </mxGeometry>
                </mxCell>
                <mxCell id="w2Y9lH-BvW_zghAYzRE6-99" style="edgeStyle=orthogonalEdgeStyle;rounded=0;orthogonalLoop=1;jettySize=auto;html=1;entryX=-0.02;entryY=0.786;entryDx=0;entryDy=0;entryPerimeter=0;" parent="1" source="w2Y9lH-BvW_zghAYzRE6-98" target="w2Y9lH-BvW_zghAYzRE6-28" edge="1">
                    <mxGeometry relative="1" as="geometry"/>
                </mxCell>
                <mxCell id="w2Y9lH-BvW_zghAYzRE6-98" value="&lt;div&gt;Signaler&lt;/div&gt;&lt;div&gt;-date&lt;/div&gt;&lt;div&gt;-message&lt;br&gt;&lt;/div&gt;" style="ellipse;whiteSpace=wrap;html=1;" parent="1" vertex="1">
                    <mxGeometry x="490" y="686" width="100" height="50" as="geometry"/>
                </mxCell>
                <mxCell id="w2Y9lH-BvW_zghAYzRE6-102" value="0,n" style="edgeLabel;html=1;align=center;verticalAlign=middle;resizable=0;points=[];" parent="1" vertex="1" connectable="0">
                    <mxGeometry x="649.9993103448279" y="740.0044827586206" as="geometry">
                        <mxPoint x="-20" y="-21" as="offset"/>
                    </mxGeometry>
                </mxCell>
                <mxCell id="w2Y9lH-BvW_zghAYzRE6-107" style="edgeStyle=orthogonalEdgeStyle;rounded=0;orthogonalLoop=1;jettySize=auto;html=1;entryX=0;entryY=0;entryDx=0;entryDy=0;" parent="1" source="w2Y9lH-BvW_zghAYzRE6-105" target="w2Y9lH-BvW_zghAYzRE6-21" edge="1">
                    <mxGeometry relative="1" as="geometry">
                        <Array as="points">
                            <mxPoint x="640" y="410"/>
                        </Array>
                    </mxGeometry>
                </mxCell>
                <mxCell id="w2Y9lH-BvW_zghAYzRE6-105" value="&lt;div&gt;Voir&lt;/div&gt;-date" style="ellipse;whiteSpace=wrap;html=1;align=center;" parent="1" vertex="1">
                    <mxGeometry x="470" y="390" width="100" height="40" as="geometry"/>
                </mxCell>
                <mxCell id="w2Y9lH-BvW_zghAYzRE6-108" value="0,n" style="edgeLabel;html=1;align=center;verticalAlign=middle;resizable=0;points=[];" parent="1" vertex="1" connectable="0">
                    <mxGeometry x="750.0344827586207" y="480.44827586206895" as="geometry">
                        <mxPoint x="-131" y="-16" as="offset"/>
                    </mxGeometry>
                </mxCell>
                <mxCell id="w2Y9lH-BvW_zghAYzRE6-109" value="0,n" style="edgeLabel;html=1;align=center;verticalAlign=middle;resizable=0;points=[];" parent="1" vertex="1" connectable="0">
                    <mxGeometry x="540.0044827586207" y="480.44827586206895" as="geometry">
                        <mxPoint x="-131" y="-16" as="offset"/>
                    </mxGeometry>
                </mxCell>
                <mxCell id="w2Y9lH-BvW_zghAYzRE6-121" style="edgeStyle=orthogonalEdgeStyle;rounded=0;orthogonalLoop=1;jettySize=auto;html=1;" parent="1" source="w2Y9lH-BvW_zghAYzRE6-119" edge="1">
                    <mxGeometry relative="1" as="geometry">
                        <mxPoint x="1204" y="700" as="targetPoint"/>
                        <Array as="points">
                            <mxPoint x="1204" y="1010"/>
                        </Array>
                    </mxGeometry>
                </mxCell>
                <mxCell id="w2Y9lH-BvW_zghAYzRE6-123" value="1,1" style="edgeLabel;html=1;align=center;verticalAlign=middle;resizable=0;points=[];" parent="w2Y9lH-BvW_zghAYzRE6-121" vertex="1" connectable="0">
                    <mxGeometry x="0.9577" y="-3" relative="1" as="geometry">
                        <mxPoint x="-27" y="-3" as="offset"/>
                    </mxGeometry>
                </mxCell>
                <mxCell id="w2Y9lH-BvW_zghAYzRE6-119" value="Appartient" style="ellipse;whiteSpace=wrap;html=1;align=center;" parent="1" vertex="1">
                    <mxGeometry x="760" y="990" width="100" height="40" as="geometry"/>
                </mxCell>
                <mxCell id="w2Y9lH-BvW_zghAYzRE6-128" style="edgeStyle=orthogonalEdgeStyle;rounded=0;orthogonalLoop=1;jettySize=auto;html=1;entryX=0.25;entryY=1;entryDx=0;entryDy=0;" parent="1" source="w2Y9lH-BvW_zghAYzRE6-125" target="w2Y9lH-BvW_zghAYzRE6-21" edge="1">
                    <mxGeometry relative="1" as="geometry">
                        <mxPoint x="670" y="760" as="targetPoint"/>
                        <Array as="points">
                            <mxPoint x="680" y="810"/>
                        </Array>
                    </mxGeometry>
                </mxCell>
                <mxCell id="w2Y9lH-BvW_zghAYzRE6-125" value="Aime" style="ellipse;whiteSpace=wrap;html=1;" parent="1" vertex="1">
                    <mxGeometry x="520" y="790" width="100" height="40" as="geometry"/>
                </mxCell>
                <mxCell id="oymeotptZleGbFHTf76_-2" value="0,n" style="edgeLabel;html=1;align=center;verticalAlign=middle;resizable=0;points=[];" parent="1" vertex="1" connectable="0">
                    <mxGeometry x="747.0044827586207" y="529.9982758620689" as="geometry">
                        <mxPoint x="-131" y="-16" as="offset"/>
                    </mxGeometry>
                </mxCell>
                <mxCell id="oymeotptZleGbFHTf76_-3" value="0,n" style="edgeLabel;html=1;align=center;verticalAlign=middle;resizable=0;points=[];" parent="1" vertex="1" connectable="0">
                    <mxGeometry x="679.9993103448279" y="810.0044827586206" as="geometry">
                        <mxPoint x="-20" y="-21" as="offset"/>
                    </mxGeometry>
                </mxCell>
                <mxCell id="oymeotptZleGbFHTf76_-4" value="0,n" style="edgeLabel;html=1;align=center;verticalAlign=middle;resizable=0;points=[];" parent="1" vertex="1" connectable="0">
                    <mxGeometry x="519.9993103448279" y="850.0044827586206" as="geometry">
                        <mxPoint x="-20" y="-21" as="offset"/>
                    </mxGeometry>
                </mxCell>
            </root>
        </mxGraphModel>
    </diagram>
    <diagram id="HOoUXuzICTAFSGOXYs0G" name="MLD">
        <mxGraphModel dx="1430" dy="770" grid="1" gridSize="10" guides="1" tooltips="1" connect="1" arrows="1" fold="1" page="1" pageScale="1" pageWidth="827" pageHeight="1169" math="0" shadow="0">
            <root>
                <mxCell id="0l9OWkSnHtWUdckkpkIx-0"/>
                <mxCell id="0l9OWkSnHtWUdckkpkIx-1" parent="0l9OWkSnHtWUdckkpkIx-0"/>
                <mxCell id="c7eTBnX2TVwpB23jek4l-0" style="edgeStyle=orthogonalEdgeStyle;rounded=0;orthogonalLoop=1;jettySize=auto;html=1;exitX=0.468;exitY=0.002;exitDx=0;exitDy=0;exitPerimeter=0;entryX=0;entryY=0.5;entryDx=0;entryDy=0;" edge="1" parent="0l9OWkSnHtWUdckkpkIx-1" source="c7eTBnX2TVwpB23jek4l-18" target="c7eTBnX2TVwpB23jek4l-110">
                    <mxGeometry relative="1" as="geometry">
                        <mxPoint x="660" y="246" as="targetPoint"/>
                    </mxGeometry>
                </mxCell>
                <mxCell id="c7eTBnX2TVwpB23jek4l-1" style="edgeStyle=orthogonalEdgeStyle;rounded=0;orthogonalLoop=1;jettySize=auto;html=1;exitX=0.25;exitY=1;exitDx=0;exitDy=0;entryX=0.25;entryY=1;entryDx=0;entryDy=0;" edge="1" parent="0l9OWkSnHtWUdckkpkIx-1" source="c7eTBnX2TVwpB23jek4l-18" target="c7eTBnX2TVwpB23jek4l-77">
                    <mxGeometry relative="1" as="geometry">
                        <Array as="points">
                            <mxPoint x="428" y="940"/>
                            <mxPoint x="1483" y="940"/>
                        </Array>
                        <mxPoint x="540" y="700" as="sourcePoint"/>
                        <mxPoint x="1300" y="510" as="targetPoint"/>
                    </mxGeometry>
                </mxCell>
                <mxCell id="c7eTBnX2TVwpB23jek4l-2" value="Appartient" style="edgeLabel;html=1;align=center;verticalAlign=middle;resizable=0;points=[];" vertex="1" connectable="0" parent="c7eTBnX2TVwpB23jek4l-1">
                    <mxGeometry x="-0.1178" relative="1" as="geometry">
                        <mxPoint x="4" y="-10" as="offset"/>
                    </mxGeometry>
                </mxCell>
                <mxCell id="c7eTBnX2TVwpB23jek4l-3" style="edgeStyle=orthogonalEdgeStyle;rounded=0;orthogonalLoop=1;jettySize=auto;html=1;exitX=0.568;exitY=0.007;exitDx=0;exitDy=0;exitPerimeter=0;entryX=1;entryY=0.5;entryDx=0;entryDy=0;" edge="1" parent="0l9OWkSnHtWUdckkpkIx-1" source="c7eTBnX2TVwpB23jek4l-59" target="c7eTBnX2TVwpB23jek4l-103">
                    <mxGeometry relative="1" as="geometry">
                        <mxPoint x="1260" y="270" as="targetPoint"/>
                        <Array as="points">
                            <mxPoint x="1298" y="245"/>
                        </Array>
                        <mxPoint x="1270" y="290" as="sourcePoint"/>
                    </mxGeometry>
                </mxCell>
                <mxCell id="c7eTBnX2TVwpB23jek4l-4" style="edgeStyle=orthogonalEdgeStyle;rounded=0;orthogonalLoop=1;jettySize=auto;html=1;entryX=1;entryY=0.5;entryDx=0;entryDy=0;" edge="1" parent="0l9OWkSnHtWUdckkpkIx-1" target="c7eTBnX2TVwpB23jek4l-117">
                    <mxGeometry relative="1" as="geometry">
                        <mxPoint x="1170" y="790" as="targetPoint"/>
                        <Array as="points">
                            <mxPoint x="1300" y="835"/>
                        </Array>
                        <mxPoint x="1299.9999999999995" y="510" as="sourcePoint"/>
                    </mxGeometry>
                </mxCell>
                <mxCell id="c7eTBnX2TVwpB23jek4l-5" style="edgeStyle=orthogonalEdgeStyle;rounded=0;orthogonalLoop=1;jettySize=auto;html=1;entryX=1;entryY=0.5;entryDx=0;entryDy=0;" edge="1" parent="0l9OWkSnHtWUdckkpkIx-1" target="c7eTBnX2TVwpB23jek4l-127">
                    <mxGeometry relative="1" as="geometry">
                        <mxPoint x="1270" y="671" as="targetPoint"/>
                        <Array as="points">
                            <mxPoint x="1270" y="704"/>
                        </Array>
                        <mxPoint x="1269.9999999999995" y="510" as="sourcePoint"/>
                    </mxGeometry>
                </mxCell>
                <mxCell id="c7eTBnX2TVwpB23jek4l-6" style="edgeStyle=orthogonalEdgeStyle;rounded=0;orthogonalLoop=1;jettySize=auto;html=1;entryX=0.793;entryY=0;entryDx=0;entryDy=0;entryPerimeter=0;exitX=0;exitY=0.5;exitDx=0;exitDy=0;" edge="1" parent="0l9OWkSnHtWUdckkpkIx-1" source="c7eTBnX2TVwpB23jek4l-102" target="c7eTBnX2TVwpB23jek4l-39">
                    <mxGeometry relative="1" as="geometry">
                        <mxPoint x="1050" y="270" as="sourcePoint"/>
                        <mxPoint x="1000" y="290" as="targetPoint"/>
                    </mxGeometry>
                </mxCell>
                <mxCell id="c7eTBnX2TVwpB23jek4l-7" style="edgeStyle=orthogonalEdgeStyle;rounded=0;orthogonalLoop=1;jettySize=auto;html=1;exitX=0;exitY=0.5;exitDx=0;exitDy=0;entryX=0.5;entryY=1;entryDx=0;entryDy=0;" edge="1" parent="0l9OWkSnHtWUdckkpkIx-1" source="c7eTBnX2TVwpB23jek4l-116" target="c7eTBnX2TVwpB23jek4l-18">
                    <mxGeometry relative="1" as="geometry">
                        <Array as="points">
                            <mxPoint x="475" y="835"/>
                        </Array>
                        <mxPoint x="860" y="785" as="sourcePoint"/>
                        <mxPoint x="570" y="700" as="targetPoint"/>
                    </mxGeometry>
                </mxCell>
                <mxCell id="c7eTBnX2TVwpB23jek4l-8" style="edgeStyle=orthogonalEdgeStyle;rounded=0;orthogonalLoop=1;jettySize=auto;html=1;entryX=1;entryY=0.5;entryDx=0;entryDy=0;exitX=0.476;exitY=-0.005;exitDx=0;exitDy=0;exitPerimeter=0;" edge="1" parent="0l9OWkSnHtWUdckkpkIx-1" source="c7eTBnX2TVwpB23jek4l-77" target="c7eTBnX2TVwpB23jek4l-96">
                    <mxGeometry relative="1" as="geometry">
                        <mxPoint x="1170.0000000000002" y="170" as="targetPoint"/>
                        <Array as="points">
                            <mxPoint x="1525" y="65"/>
                        </Array>
                        <mxPoint x="1600" y="270" as="sourcePoint"/>
                    </mxGeometry>
                </mxCell>
                <mxCell id="c7eTBnX2TVwpB23jek4l-9" style="edgeStyle=orthogonalEdgeStyle;rounded=0;orthogonalLoop=1;jettySize=auto;html=1;exitX=0.225;exitY=0.007;exitDx=0;exitDy=0;exitPerimeter=0;" edge="1" parent="0l9OWkSnHtWUdckkpkIx-1" source="c7eTBnX2TVwpB23jek4l-77" target="c7eTBnX2TVwpB23jek4l-39">
                    <mxGeometry relative="1" as="geometry">
                        <Array as="points">
                            <mxPoint x="1478" y="180"/>
                            <mxPoint x="984" y="180"/>
                        </Array>
                        <mxPoint x="1530" y="280" as="sourcePoint"/>
                        <mxPoint x="1280" y="230" as="targetPoint"/>
                    </mxGeometry>
                </mxCell>
                <mxCell id="c7eTBnX2TVwpB23jek4l-10" value="Ecrit" style="edgeLabel;html=1;align=center;verticalAlign=middle;resizable=0;points=[];" vertex="1" connectable="0" parent="c7eTBnX2TVwpB23jek4l-9">
                    <mxGeometry x="-0.1578" y="-1" relative="1" as="geometry">
                        <mxPoint x="18" y="-9" as="offset"/>
                    </mxGeometry>
                </mxCell>
                <mxCell id="c7eTBnX2TVwpB23jek4l-11" style="edgeStyle=orthogonalEdgeStyle;rounded=0;orthogonalLoop=1;jettySize=auto;html=1;entryX=0.5;entryY=1;entryDx=0;entryDy=0;exitX=0;exitY=0.5;exitDx=0;exitDy=0;" edge="1" parent="0l9OWkSnHtWUdckkpkIx-1" source="c7eTBnX2TVwpB23jek4l-124" target="c7eTBnX2TVwpB23jek4l-39">
                    <mxGeometry relative="1" as="geometry">
                        <Array as="points">
                            <mxPoint x="984" y="671"/>
                        </Array>
                        <mxPoint x="1020" y="610" as="sourcePoint"/>
                    </mxGeometry>
                </mxCell>
                <mxCell id="c7eTBnX2TVwpB23jek4l-12" style="edgeStyle=orthogonalEdgeStyle;rounded=0;orthogonalLoop=1;jettySize=auto;html=1;entryX=0.32;entryY=0.007;entryDx=0;entryDy=0;entryPerimeter=0;exitX=0;exitY=0.5;exitDx=0;exitDy=0;" edge="1" parent="0l9OWkSnHtWUdckkpkIx-1" source="c7eTBnX2TVwpB23jek4l-96" target="c7eTBnX2TVwpB23jek4l-39">
                    <mxGeometry relative="1" as="geometry">
                        <Array as="points">
                            <mxPoint x="950" y="65"/>
                        </Array>
                        <mxPoint x="951" y="290" as="targetPoint"/>
                    </mxGeometry>
                </mxCell>
                <mxCell id="c7eTBnX2TVwpB23jek4l-13" style="edgeStyle=orthogonalEdgeStyle;rounded=0;orthogonalLoop=1;jettySize=auto;html=1;" edge="1" parent="0l9OWkSnHtWUdckkpkIx-1">
                    <mxGeometry relative="1" as="geometry">
                        <mxPoint x="899.4099999999999" y="380" as="sourcePoint"/>
                        <Array as="points">
                            <mxPoint x="839.41" y="380"/>
                        </Array>
                        <mxPoint x="839" y="390" as="targetPoint"/>
                    </mxGeometry>
                </mxCell>
                <mxCell id="c7eTBnX2TVwpB23jek4l-14" style="edgeStyle=orthogonalEdgeStyle;rounded=0;orthogonalLoop=1;jettySize=auto;html=1;entryX=0.168;entryY=0.001;entryDx=0;entryDy=0;entryPerimeter=0;exitX=1;exitY=0.5;exitDx=0;exitDy=0;" edge="1" parent="0l9OWkSnHtWUdckkpkIx-1" source="c7eTBnX2TVwpB23jek4l-110" target="c7eTBnX2TVwpB23jek4l-39">
                    <mxGeometry relative="1" as="geometry">
                        <Array as="points">
                            <mxPoint x="921" y="175"/>
                        </Array>
                        <mxPoint x="900" y="250" as="sourcePoint"/>
                        <mxPoint x="920" y="290" as="targetPoint"/>
                    </mxGeometry>
                </mxCell>
                <mxCell id="c7eTBnX2TVwpB23jek4l-15" style="edgeStyle=orthogonalEdgeStyle;rounded=0;orthogonalLoop=1;jettySize=auto;html=1;entryX=1;entryY=0.5;entryDx=0;entryDy=0;exitX=1;exitY=0.5;exitDx=0;exitDy=0;" edge="1" parent="0l9OWkSnHtWUdckkpkIx-1" source="c7eTBnX2TVwpB23jek4l-40" target="c7eTBnX2TVwpB23jek4l-58">
                    <mxGeometry relative="1" as="geometry">
                        <mxPoint x="1132" y="385" as="targetPoint"/>
                        <Array as="points">
                            <mxPoint x="1099" y="365"/>
                            <mxPoint x="1099" y="535"/>
                        </Array>
                    </mxGeometry>
                </mxCell>
                <mxCell id="c7eTBnX2TVwpB23jek4l-16" value="Modifie" style="edgeLabel;html=1;align=center;verticalAlign=middle;resizable=0;points=[];" vertex="1" connectable="0" parent="c7eTBnX2TVwpB23jek4l-15">
                    <mxGeometry x="-0.3251" y="-3" relative="1" as="geometry">
                        <mxPoint x="24" y="29" as="offset"/>
                    </mxGeometry>
                </mxCell>
                <mxCell id="c7eTBnX2TVwpB23jek4l-17" style="edgeStyle=orthogonalEdgeStyle;rounded=0;orthogonalLoop=1;jettySize=auto;html=1;exitX=0;exitY=0.75;exitDx=0;exitDy=0;entryX=1.012;entryY=0.165;entryDx=0;entryDy=0;entryPerimeter=0;" edge="1" parent="0l9OWkSnHtWUdckkpkIx-1" source="c7eTBnX2TVwpB23jek4l-18" target="c7eTBnX2TVwpB23jek4l-202">
                    <mxGeometry relative="1" as="geometry">
                        <Array as="points">
                            <mxPoint x="380" y="647"/>
                        </Array>
                    </mxGeometry>
                </mxCell>
                <mxCell id="c7eTBnX2TVwpB23jek4l-18" value="Media" style="shape=table;startSize=30;container=1;collapsible=1;childLayout=tableLayout;fixedRows=1;rowLines=0;fontStyle=1;align=center;resizeLast=1;" vertex="1" parent="0l9OWkSnHtWUdckkpkIx-1">
                    <mxGeometry x="380" y="280" width="190" height="420" as="geometry"/>
                </mxCell>
                <mxCell id="c7eTBnX2TVwpB23jek4l-19" value="" style="shape=partialRectangle;collapsible=0;dropTarget=0;pointerEvents=0;fillColor=none;top=0;left=0;bottom=1;right=0;points=[[0,0.5],[1,0.5]];portConstraint=eastwest;" vertex="1" parent="c7eTBnX2TVwpB23jek4l-18">
                    <mxGeometry y="30" width="190" height="30" as="geometry"/>
                </mxCell>
                <mxCell id="c7eTBnX2TVwpB23jek4l-20" value="PK" style="shape=partialRectangle;connectable=0;fillColor=none;top=0;left=0;bottom=0;right=0;fontStyle=1;overflow=hidden;" vertex="1" parent="c7eTBnX2TVwpB23jek4l-19">
                    <mxGeometry width="30" height="30" as="geometry">
                        <mxRectangle width="30" height="30" as="alternateBounds"/>
                    </mxGeometry>
                </mxCell>
                <mxCell id="c7eTBnX2TVwpB23jek4l-21" value="ID" style="shape=partialRectangle;connectable=0;fillColor=none;top=0;left=0;bottom=0;right=0;align=left;spacingLeft=6;fontStyle=5;overflow=hidden;" vertex="1" parent="c7eTBnX2TVwpB23jek4l-19">
                    <mxGeometry x="30" width="160" height="30" as="geometry">
                        <mxRectangle width="160" height="30" as="alternateBounds"/>
                    </mxGeometry>
                </mxCell>
                <mxCell id="c7eTBnX2TVwpB23jek4l-22" value="" style="shape=partialRectangle;collapsible=0;dropTarget=0;pointerEvents=0;fillColor=none;top=0;left=0;bottom=0;right=0;points=[[0,0.5],[1,0.5]];portConstraint=eastwest;" vertex="1" parent="c7eTBnX2TVwpB23jek4l-18">
                    <mxGeometry y="60" width="190" height="30" as="geometry"/>
                </mxCell>
                <mxCell id="c7eTBnX2TVwpB23jek4l-23" value="" style="shape=partialRectangle;connectable=0;fillColor=none;top=0;left=0;bottom=0;right=0;editable=1;overflow=hidden;" vertex="1" parent="c7eTBnX2TVwpB23jek4l-22">
                    <mxGeometry width="30" height="30" as="geometry">
                        <mxRectangle width="30" height="30" as="alternateBounds"/>
                    </mxGeometry>
                </mxCell>
                <mxCell id="c7eTBnX2TVwpB23jek4l-24" value="" style="shape=partialRectangle;connectable=0;fillColor=none;top=0;left=0;bottom=0;right=0;align=left;spacingLeft=6;overflow=hidden;" vertex="1" parent="c7eTBnX2TVwpB23jek4l-22">
                    <mxGeometry x="30" width="160" height="30" as="geometry">
                        <mxRectangle width="160" height="30" as="alternateBounds"/>
                    </mxGeometry>
                </mxCell>
                <mxCell id="c7eTBnX2TVwpB23jek4l-25" value="" style="shape=partialRectangle;collapsible=0;dropTarget=0;pointerEvents=0;fillColor=none;top=0;left=0;bottom=0;right=0;points=[[0,0.5],[1,0.5]];portConstraint=eastwest;" vertex="1" parent="c7eTBnX2TVwpB23jek4l-18">
                    <mxGeometry y="90" width="190" height="30" as="geometry"/>
                </mxCell>
                <mxCell id="c7eTBnX2TVwpB23jek4l-26" value="" style="shape=partialRectangle;connectable=0;fillColor=none;top=0;left=0;bottom=0;right=0;editable=1;overflow=hidden;" vertex="1" parent="c7eTBnX2TVwpB23jek4l-25">
                    <mxGeometry width="30" height="30" as="geometry">
                        <mxRectangle width="30" height="30" as="alternateBounds"/>
                    </mxGeometry>
                </mxCell>
                <mxCell id="c7eTBnX2TVwpB23jek4l-27" value="" style="shape=partialRectangle;connectable=0;fillColor=none;top=0;left=0;bottom=0;right=0;align=left;spacingLeft=6;overflow=hidden;" vertex="1" parent="c7eTBnX2TVwpB23jek4l-25">
                    <mxGeometry x="30" width="160" height="30" as="geometry">
                        <mxRectangle width="160" height="30" as="alternateBounds"/>
                    </mxGeometry>
                </mxCell>
                <mxCell id="c7eTBnX2TVwpB23jek4l-28" value="" style="shape=partialRectangle;collapsible=0;dropTarget=0;pointerEvents=0;fillColor=none;top=0;left=0;bottom=0;right=0;points=[[0,0.5],[1,0.5]];portConstraint=eastwest;" vertex="1" parent="c7eTBnX2TVwpB23jek4l-18">
                    <mxGeometry y="120" width="190" height="30" as="geometry"/>
                </mxCell>
                <mxCell id="c7eTBnX2TVwpB23jek4l-29" value="" style="shape=partialRectangle;connectable=0;fillColor=none;top=0;left=0;bottom=0;right=0;editable=1;overflow=hidden;" vertex="1" parent="c7eTBnX2TVwpB23jek4l-28">
                    <mxGeometry width="30" height="30" as="geometry">
                        <mxRectangle width="30" height="30" as="alternateBounds"/>
                    </mxGeometry>
                </mxCell>
                <mxCell id="c7eTBnX2TVwpB23jek4l-30" value="" style="shape=partialRectangle;connectable=0;fillColor=none;top=0;left=0;bottom=0;right=0;align=left;spacingLeft=6;overflow=hidden;" vertex="1" parent="c7eTBnX2TVwpB23jek4l-28">
                    <mxGeometry x="30" width="160" height="30" as="geometry">
                        <mxRectangle width="160" height="30" as="alternateBounds"/>
                    </mxGeometry>
                </mxCell>
                <mxCell id="c7eTBnX2TVwpB23jek4l-31" value="name" style="text;strokeColor=none;fillColor=none;spacingLeft=4;spacingRight=4;overflow=hidden;rotatable=0;points=[[0,0.5],[1,0.5]];portConstraint=eastwest;fontSize=12;fontStyle=0" vertex="1" parent="0l9OWkSnHtWUdckkpkIx-1">
                    <mxGeometry x="410" y="340" width="150" height="30" as="geometry"/>
                </mxCell>
                <mxCell id="c7eTBnX2TVwpB23jek4l-32" value="episode_nb" style="text;strokeColor=none;fillColor=none;spacingLeft=4;spacingRight=4;overflow=hidden;rotatable=0;points=[[0,0.5],[1,0.5]];portConstraint=eastwest;fontSize=12;" vertex="1" parent="0l9OWkSnHtWUdckkpkIx-1">
                    <mxGeometry x="410" y="370" width="160" height="30" as="geometry"/>
                </mxCell>
                <mxCell id="c7eTBnX2TVwpB23jek4l-33" value="duration_time" style="text;strokeColor=none;fillColor=none;spacingLeft=4;spacingRight=4;overflow=hidden;rotatable=0;points=[[0,0.5],[1,0.5]];portConstraint=eastwest;fontSize=12;" vertex="1" parent="0l9OWkSnHtWUdckkpkIx-1">
                    <mxGeometry x="410" y="400.45" width="160" height="30" as="geometry"/>
                </mxCell>
                <mxCell id="c7eTBnX2TVwpB23jek4l-34" value="release_date" style="text;strokeColor=none;fillColor=none;spacingLeft=4;spacingRight=4;overflow=hidden;rotatable=0;points=[[0,0.5],[1,0.5]];portConstraint=eastwest;fontSize=12;" vertex="1" parent="0l9OWkSnHtWUdckkpkIx-1">
                    <mxGeometry x="410" y="430.45" width="160" height="30" as="geometry"/>
                </mxCell>
                <mxCell id="c7eTBnX2TVwpB23jek4l-35" value="ending_date" style="text;strokeColor=none;fillColor=none;spacingLeft=4;spacingRight=4;overflow=hidden;rotatable=0;points=[[0,0.5],[1,0.5]];portConstraint=eastwest;fontSize=12;" vertex="1" parent="0l9OWkSnHtWUdckkpkIx-1">
                    <mxGeometry x="410" y="460" width="160" height="30" as="geometry"/>
                </mxCell>
                <mxCell id="c7eTBnX2TVwpB23jek4l-36" value="is_modo" style="text;strokeColor=none;fillColor=none;spacingLeft=4;spacingRight=4;overflow=hidden;rotatable=0;points=[[0,0.5],[1,0.5]];portConstraint=eastwest;fontSize=12;" vertex="1" parent="0l9OWkSnHtWUdckkpkIx-1">
                    <mxGeometry x="410" y="490" width="160" height="30" as="geometry"/>
                </mxCell>
                <mxCell id="c7eTBnX2TVwpB23jek4l-37" value="total_duration_time" style="text;strokeColor=none;fillColor=none;spacingLeft=4;spacingRight=4;overflow=hidden;rotatable=0;points=[[0,0.5],[1,0.5]];portConstraint=eastwest;fontSize=12;" vertex="1" parent="0l9OWkSnHtWUdckkpkIx-1">
                    <mxGeometry x="410" y="520" width="160" height="30" as="geometry"/>
                </mxCell>
                <mxCell id="c7eTBnX2TVwpB23jek4l-38" value="Description" style="text;strokeColor=none;fillColor=none;spacingLeft=4;spacingRight=4;overflow=hidden;rotatable=0;points=[[0,0.5],[1,0.5]];portConstraint=eastwest;fontSize=12;" vertex="1" parent="0l9OWkSnHtWUdckkpkIx-1">
                    <mxGeometry x="410" y="548" width="160" height="30" as="geometry"/>
                </mxCell>
                <mxCell id="c7eTBnX2TVwpB23jek4l-39" value="Utilisateur" style="shape=table;startSize=30;container=1;collapsible=1;childLayout=tableLayout;fixedRows=1;rowLines=0;fontStyle=1;align=center;resizeLast=1;" vertex="1" parent="0l9OWkSnHtWUdckkpkIx-1">
                    <mxGeometry x="889.41" y="320" width="190" height="320" as="geometry"/>
                </mxCell>
                <mxCell id="c7eTBnX2TVwpB23jek4l-40" value="" style="shape=partialRectangle;collapsible=0;dropTarget=0;pointerEvents=0;fillColor=none;top=0;left=0;bottom=1;right=0;points=[[0,0.5],[1,0.5]];portConstraint=eastwest;" vertex="1" parent="c7eTBnX2TVwpB23jek4l-39">
                    <mxGeometry y="30" width="190" height="30" as="geometry"/>
                </mxCell>
                <mxCell id="c7eTBnX2TVwpB23jek4l-41" value="PK" style="shape=partialRectangle;connectable=0;fillColor=none;top=0;left=0;bottom=0;right=0;fontStyle=1;overflow=hidden;" vertex="1" parent="c7eTBnX2TVwpB23jek4l-40">
                    <mxGeometry width="30" height="30" as="geometry">
                        <mxRectangle width="30" height="30" as="alternateBounds"/>
                    </mxGeometry>
                </mxCell>
                <mxCell id="c7eTBnX2TVwpB23jek4l-42" value="ID" style="shape=partialRectangle;connectable=0;fillColor=none;top=0;left=0;bottom=0;right=0;align=left;spacingLeft=6;fontStyle=5;overflow=hidden;" vertex="1" parent="c7eTBnX2TVwpB23jek4l-40">
                    <mxGeometry x="30" width="160" height="30" as="geometry">
                        <mxRectangle width="160" height="30" as="alternateBounds"/>
                    </mxGeometry>
                </mxCell>
                <mxCell id="c7eTBnX2TVwpB23jek4l-43" value="" style="shape=partialRectangle;collapsible=0;dropTarget=0;pointerEvents=0;fillColor=none;top=0;left=0;bottom=0;right=0;points=[[0,0.5],[1,0.5]];portConstraint=eastwest;" vertex="1" parent="c7eTBnX2TVwpB23jek4l-39">
                    <mxGeometry y="60" width="190" height="30" as="geometry"/>
                </mxCell>
                <mxCell id="c7eTBnX2TVwpB23jek4l-44" value="" style="shape=partialRectangle;connectable=0;fillColor=none;top=0;left=0;bottom=0;right=0;editable=1;overflow=hidden;" vertex="1" parent="c7eTBnX2TVwpB23jek4l-43">
                    <mxGeometry width="30" height="30" as="geometry">
                        <mxRectangle width="30" height="30" as="alternateBounds"/>
                    </mxGeometry>
                </mxCell>
                <mxCell id="c7eTBnX2TVwpB23jek4l-45" value="" style="shape=partialRectangle;connectable=0;fillColor=none;top=0;left=0;bottom=0;right=0;align=left;spacingLeft=6;overflow=hidden;" vertex="1" parent="c7eTBnX2TVwpB23jek4l-43">
                    <mxGeometry x="30" width="160" height="30" as="geometry">
                        <mxRectangle width="160" height="30" as="alternateBounds"/>
                    </mxGeometry>
                </mxCell>
                <mxCell id="c7eTBnX2TVwpB23jek4l-46" value="" style="shape=partialRectangle;collapsible=0;dropTarget=0;pointerEvents=0;fillColor=none;top=0;left=0;bottom=0;right=0;points=[[0,0.5],[1,0.5]];portConstraint=eastwest;" vertex="1" parent="c7eTBnX2TVwpB23jek4l-39">
                    <mxGeometry y="90" width="190" height="30" as="geometry"/>
                </mxCell>
                <mxCell id="c7eTBnX2TVwpB23jek4l-47" value="" style="shape=partialRectangle;connectable=0;fillColor=none;top=0;left=0;bottom=0;right=0;editable=1;overflow=hidden;" vertex="1" parent="c7eTBnX2TVwpB23jek4l-46">
                    <mxGeometry width="30" height="30" as="geometry">
                        <mxRectangle width="30" height="30" as="alternateBounds"/>
                    </mxGeometry>
                </mxCell>
                <mxCell id="c7eTBnX2TVwpB23jek4l-48" value="" style="shape=partialRectangle;connectable=0;fillColor=none;top=0;left=0;bottom=0;right=0;align=left;spacingLeft=6;overflow=hidden;" vertex="1" parent="c7eTBnX2TVwpB23jek4l-46">
                    <mxGeometry x="30" width="160" height="30" as="geometry">
                        <mxRectangle width="160" height="30" as="alternateBounds"/>
                    </mxGeometry>
                </mxCell>
                <mxCell id="c7eTBnX2TVwpB23jek4l-49" value="" style="shape=partialRectangle;collapsible=0;dropTarget=0;pointerEvents=0;fillColor=none;top=0;left=0;bottom=0;right=0;points=[[0,0.5],[1,0.5]];portConstraint=eastwest;" vertex="1" parent="c7eTBnX2TVwpB23jek4l-39">
                    <mxGeometry y="120" width="190" height="30" as="geometry"/>
                </mxCell>
                <mxCell id="c7eTBnX2TVwpB23jek4l-50" value="" style="shape=partialRectangle;connectable=0;fillColor=none;top=0;left=0;bottom=0;right=0;editable=1;overflow=hidden;" vertex="1" parent="c7eTBnX2TVwpB23jek4l-49">
                    <mxGeometry width="30" height="30" as="geometry">
                        <mxRectangle width="30" height="30" as="alternateBounds"/>
                    </mxGeometry>
                </mxCell>
                <mxCell id="c7eTBnX2TVwpB23jek4l-51" value="" style="shape=partialRectangle;connectable=0;fillColor=none;top=0;left=0;bottom=0;right=0;align=left;spacingLeft=6;overflow=hidden;" vertex="1" parent="c7eTBnX2TVwpB23jek4l-49">
                    <mxGeometry x="30" width="160" height="30" as="geometry">
                        <mxRectangle width="160" height="30" as="alternateBounds"/>
                    </mxGeometry>
                </mxCell>
                <mxCell id="c7eTBnX2TVwpB23jek4l-52" value="Pseudo" style="text;strokeColor=none;fillColor=none;spacingLeft=4;spacingRight=4;overflow=hidden;rotatable=0;points=[[0,0.5],[1,0.5]];portConstraint=eastwest;fontSize=12;fontStyle=0" vertex="1" parent="0l9OWkSnHtWUdckkpkIx-1">
                    <mxGeometry x="919.41" y="608" width="160" height="30" as="geometry"/>
                </mxCell>
                <mxCell id="c7eTBnX2TVwpB23jek4l-53" value="Nom" style="text;strokeColor=none;fillColor=none;spacingLeft=4;spacingRight=4;overflow=hidden;rotatable=0;points=[[0,0.5],[1,0.5]];portConstraint=eastwest;fontSize=12;" vertex="1" parent="0l9OWkSnHtWUdckkpkIx-1">
                    <mxGeometry x="919.41" y="380" width="160" height="30" as="geometry"/>
                </mxCell>
                <mxCell id="c7eTBnX2TVwpB23jek4l-54" value="Prénom" style="text;strokeColor=none;fillColor=none;spacingLeft=4;spacingRight=4;overflow=hidden;rotatable=0;points=[[0,0.5],[1,0.5]];portConstraint=eastwest;fontSize=12;" vertex="1" parent="0l9OWkSnHtWUdckkpkIx-1">
                    <mxGeometry x="919.41" y="410" width="160" height="30" as="geometry"/>
                </mxCell>
                <mxCell id="c7eTBnX2TVwpB23jek4l-55" value="Avatar" style="text;strokeColor=none;fillColor=none;spacingLeft=4;spacingRight=4;overflow=hidden;rotatable=0;points=[[0,0.5],[1,0.5]];portConstraint=eastwest;fontSize=12;" vertex="1" parent="0l9OWkSnHtWUdckkpkIx-1">
                    <mxGeometry x="919.41" y="440" width="160" height="30" as="geometry"/>
                </mxCell>
                <mxCell id="c7eTBnX2TVwpB23jek4l-56" value="Email" style="text;strokeColor=none;fillColor=none;spacingLeft=4;spacingRight=4;overflow=hidden;rotatable=0;points=[[0,0.5],[1,0.5]];portConstraint=eastwest;fontSize=12;" vertex="1" parent="0l9OWkSnHtWUdckkpkIx-1">
                    <mxGeometry x="919.41" y="470" width="160" height="30" as="geometry"/>
                </mxCell>
                <mxCell id="c7eTBnX2TVwpB23jek4l-57" value="mdp" style="text;strokeColor=none;fillColor=none;spacingLeft=4;spacingRight=4;overflow=hidden;rotatable=0;points=[[0,0.5],[1,0.5]];portConstraint=eastwest;fontSize=12;" vertex="1" parent="0l9OWkSnHtWUdckkpkIx-1">
                    <mxGeometry x="919.41" y="490.45" width="120.59" height="30" as="geometry"/>
                </mxCell>
                <mxCell id="c7eTBnX2TVwpB23jek4l-58" value="Status" style="text;strokeColor=none;fillColor=none;spacingLeft=4;spacingRight=4;overflow=hidden;rotatable=0;points=[[0,0.5],[1,0.5]];portConstraint=eastwest;fontSize=12;" vertex="1" parent="0l9OWkSnHtWUdckkpkIx-1">
                    <mxGeometry x="919.41" y="520" width="160" height="30" as="geometry"/>
                </mxCell>
                <mxCell id="c7eTBnX2TVwpB23jek4l-59" value="Playlist" style="shape=table;startSize=30;container=1;collapsible=1;childLayout=tableLayout;fixedRows=1;rowLines=0;fontStyle=1;align=center;resizeLast=1;" vertex="1" parent="0l9OWkSnHtWUdckkpkIx-1">
                    <mxGeometry x="1190" y="328" width="190" height="180" as="geometry"/>
                </mxCell>
                <mxCell id="c7eTBnX2TVwpB23jek4l-60" value="" style="shape=partialRectangle;collapsible=0;dropTarget=0;pointerEvents=0;fillColor=none;top=0;left=0;bottom=1;right=0;points=[[0,0.5],[1,0.5]];portConstraint=eastwest;" vertex="1" parent="c7eTBnX2TVwpB23jek4l-59">
                    <mxGeometry y="30" width="190" height="30" as="geometry"/>
                </mxCell>
                <mxCell id="c7eTBnX2TVwpB23jek4l-61" value="PK" style="shape=partialRectangle;connectable=0;fillColor=none;top=0;left=0;bottom=0;right=0;fontStyle=1;overflow=hidden;" vertex="1" parent="c7eTBnX2TVwpB23jek4l-60">
                    <mxGeometry width="30" height="30" as="geometry">
                        <mxRectangle width="30" height="30" as="alternateBounds"/>
                    </mxGeometry>
                </mxCell>
                <mxCell id="c7eTBnX2TVwpB23jek4l-62" value="" style="shape=partialRectangle;connectable=0;fillColor=none;top=0;left=0;bottom=0;right=0;align=left;spacingLeft=6;fontStyle=5;overflow=hidden;" vertex="1" parent="c7eTBnX2TVwpB23jek4l-60">
                    <mxGeometry x="30" width="160" height="30" as="geometry">
                        <mxRectangle width="160" height="30" as="alternateBounds"/>
                    </mxGeometry>
                </mxCell>
                <mxCell id="c7eTBnX2TVwpB23jek4l-63" value="" style="shape=partialRectangle;collapsible=0;dropTarget=0;pointerEvents=0;fillColor=none;top=0;left=0;bottom=0;right=0;points=[[0,0.5],[1,0.5]];portConstraint=eastwest;" vertex="1" parent="c7eTBnX2TVwpB23jek4l-59">
                    <mxGeometry y="60" width="190" height="30" as="geometry"/>
                </mxCell>
                <mxCell id="c7eTBnX2TVwpB23jek4l-64" value="" style="shape=partialRectangle;connectable=0;fillColor=none;top=0;left=0;bottom=0;right=0;editable=1;overflow=hidden;" vertex="1" parent="c7eTBnX2TVwpB23jek4l-63">
                    <mxGeometry width="30" height="30" as="geometry">
                        <mxRectangle width="30" height="30" as="alternateBounds"/>
                    </mxGeometry>
                </mxCell>
                <mxCell id="c7eTBnX2TVwpB23jek4l-65" value="" style="shape=partialRectangle;connectable=0;fillColor=none;top=0;left=0;bottom=0;right=0;align=left;spacingLeft=6;overflow=hidden;" vertex="1" parent="c7eTBnX2TVwpB23jek4l-63">
                    <mxGeometry x="30" width="160" height="30" as="geometry">
                        <mxRectangle width="160" height="30" as="alternateBounds"/>
                    </mxGeometry>
                </mxCell>
                <mxCell id="c7eTBnX2TVwpB23jek4l-66" value="" style="shape=partialRectangle;collapsible=0;dropTarget=0;pointerEvents=0;fillColor=none;top=0;left=0;bottom=0;right=0;points=[[0,0.5],[1,0.5]];portConstraint=eastwest;" vertex="1" parent="c7eTBnX2TVwpB23jek4l-59">
                    <mxGeometry y="90" width="190" height="30" as="geometry"/>
                </mxCell>
                <mxCell id="c7eTBnX2TVwpB23jek4l-67" value="" style="shape=partialRectangle;connectable=0;fillColor=none;top=0;left=0;bottom=0;right=0;editable=1;overflow=hidden;" vertex="1" parent="c7eTBnX2TVwpB23jek4l-66">
                    <mxGeometry width="30" height="30" as="geometry">
                        <mxRectangle width="30" height="30" as="alternateBounds"/>
                    </mxGeometry>
                </mxCell>
                <mxCell id="c7eTBnX2TVwpB23jek4l-68" value="" style="shape=partialRectangle;connectable=0;fillColor=none;top=0;left=0;bottom=0;right=0;align=left;spacingLeft=6;overflow=hidden;" vertex="1" parent="c7eTBnX2TVwpB23jek4l-66">
                    <mxGeometry x="30" width="160" height="30" as="geometry">
                        <mxRectangle width="160" height="30" as="alternateBounds"/>
                    </mxGeometry>
                </mxCell>
                <mxCell id="c7eTBnX2TVwpB23jek4l-69" value="" style="shape=partialRectangle;collapsible=0;dropTarget=0;pointerEvents=0;fillColor=none;top=0;left=0;bottom=0;right=0;points=[[0,0.5],[1,0.5]];portConstraint=eastwest;" vertex="1" parent="c7eTBnX2TVwpB23jek4l-59">
                    <mxGeometry y="120" width="190" height="30" as="geometry"/>
                </mxCell>
                <mxCell id="c7eTBnX2TVwpB23jek4l-70" value="" style="shape=partialRectangle;connectable=0;fillColor=none;top=0;left=0;bottom=0;right=0;editable=1;overflow=hidden;" vertex="1" parent="c7eTBnX2TVwpB23jek4l-69">
                    <mxGeometry width="30" height="30" as="geometry">
                        <mxRectangle width="30" height="30" as="alternateBounds"/>
                    </mxGeometry>
                </mxCell>
                <mxCell id="c7eTBnX2TVwpB23jek4l-71" value="" style="shape=partialRectangle;connectable=0;fillColor=none;top=0;left=0;bottom=0;right=0;align=left;spacingLeft=6;overflow=hidden;" vertex="1" parent="c7eTBnX2TVwpB23jek4l-69">
                    <mxGeometry x="30" width="160" height="30" as="geometry">
                        <mxRectangle width="160" height="30" as="alternateBounds"/>
                    </mxGeometry>
                </mxCell>
                <mxCell id="c7eTBnX2TVwpB23jek4l-72" value="ID" style="text;strokeColor=none;fillColor=none;spacingLeft=4;spacingRight=4;overflow=hidden;rotatable=0;points=[[0,0.5],[1,0.5]];portConstraint=eastwest;fontSize=12;fontStyle=4" vertex="1" parent="0l9OWkSnHtWUdckkpkIx-1">
                    <mxGeometry x="1220" y="358" width="160" height="30" as="geometry"/>
                </mxCell>
                <mxCell id="c7eTBnX2TVwpB23jek4l-73" value="Utilisateur" style="text;strokeColor=none;fillColor=none;spacingLeft=4;spacingRight=4;overflow=hidden;rotatable=0;points=[[0,0.5],[1,0.5]];portConstraint=eastwest;fontSize=12;" vertex="1" parent="0l9OWkSnHtWUdckkpkIx-1">
                    <mxGeometry x="1220" y="388" width="160" height="30" as="geometry"/>
                </mxCell>
                <mxCell id="c7eTBnX2TVwpB23jek4l-74" value="nom" style="text;strokeColor=none;fillColor=none;spacingLeft=4;spacingRight=4;overflow=hidden;rotatable=0;points=[[0,0.5],[1,0.5]];portConstraint=eastwest;fontSize=12;fontStyle=0" vertex="1" parent="0l9OWkSnHtWUdckkpkIx-1">
                    <mxGeometry x="1220" y="418" width="160" height="30" as="geometry"/>
                </mxCell>
                <mxCell id="c7eTBnX2TVwpB23jek4l-75" value="status" style="text;strokeColor=none;fillColor=none;spacingLeft=4;spacingRight=4;overflow=hidden;rotatable=0;points=[[0,0.5],[1,0.5]];portConstraint=eastwest;fontSize=12;" vertex="1" parent="0l9OWkSnHtWUdckkpkIx-1">
                    <mxGeometry x="1220" y="448" width="160" height="30" as="geometry"/>
                </mxCell>
                <mxCell id="c7eTBnX2TVwpB23jek4l-76" value="état" style="text;strokeColor=none;fillColor=none;spacingLeft=4;spacingRight=4;overflow=hidden;rotatable=0;points=[[0,0.5],[1,0.5]];portConstraint=eastwest;fontSize=12;" vertex="1" parent="0l9OWkSnHtWUdckkpkIx-1">
                    <mxGeometry x="1220" y="478" width="160" height="24" as="geometry"/>
                </mxCell>
                <mxCell id="c7eTBnX2TVwpB23jek4l-77" value="Commentaire" style="shape=table;startSize=30;container=1;collapsible=1;childLayout=tableLayout;fixedRows=1;rowLines=0;fontStyle=1;align=center;resizeLast=1;" vertex="1" parent="0l9OWkSnHtWUdckkpkIx-1">
                    <mxGeometry x="1435" y="320.45" width="190" height="189.55" as="geometry"/>
                </mxCell>
                <mxCell id="c7eTBnX2TVwpB23jek4l-78" value="" style="shape=partialRectangle;collapsible=0;dropTarget=0;pointerEvents=0;fillColor=none;top=0;left=0;bottom=1;right=0;points=[[0,0.5],[1,0.5]];portConstraint=eastwest;" vertex="1" parent="c7eTBnX2TVwpB23jek4l-77">
                    <mxGeometry y="30" width="190" height="30" as="geometry"/>
                </mxCell>
                <mxCell id="c7eTBnX2TVwpB23jek4l-79" value="PK" style="shape=partialRectangle;connectable=0;fillColor=none;top=0;left=0;bottom=0;right=0;fontStyle=1;overflow=hidden;" vertex="1" parent="c7eTBnX2TVwpB23jek4l-78">
                    <mxGeometry width="30" height="30" as="geometry">
                        <mxRectangle width="30" height="30" as="alternateBounds"/>
                    </mxGeometry>
                </mxCell>
                <mxCell id="c7eTBnX2TVwpB23jek4l-80" value="" style="shape=partialRectangle;connectable=0;fillColor=none;top=0;left=0;bottom=0;right=0;align=left;spacingLeft=6;fontStyle=5;overflow=hidden;" vertex="1" parent="c7eTBnX2TVwpB23jek4l-78">
                    <mxGeometry x="30" width="160" height="30" as="geometry">
                        <mxRectangle width="160" height="30" as="alternateBounds"/>
                    </mxGeometry>
                </mxCell>
                <mxCell id="c7eTBnX2TVwpB23jek4l-81" value="" style="shape=partialRectangle;collapsible=0;dropTarget=0;pointerEvents=0;fillColor=none;top=0;left=0;bottom=0;right=0;points=[[0,0.5],[1,0.5]];portConstraint=eastwest;" vertex="1" parent="c7eTBnX2TVwpB23jek4l-77">
                    <mxGeometry y="60" width="190" height="30" as="geometry"/>
                </mxCell>
                <mxCell id="c7eTBnX2TVwpB23jek4l-82" value="" style="shape=partialRectangle;connectable=0;fillColor=none;top=0;left=0;bottom=0;right=0;editable=1;overflow=hidden;" vertex="1" parent="c7eTBnX2TVwpB23jek4l-81">
                    <mxGeometry width="30" height="30" as="geometry">
                        <mxRectangle width="30" height="30" as="alternateBounds"/>
                    </mxGeometry>
                </mxCell>
                <mxCell id="c7eTBnX2TVwpB23jek4l-83" value="" style="shape=partialRectangle;connectable=0;fillColor=none;top=0;left=0;bottom=0;right=0;align=left;spacingLeft=6;overflow=hidden;" vertex="1" parent="c7eTBnX2TVwpB23jek4l-81">
                    <mxGeometry x="30" width="160" height="30" as="geometry">
                        <mxRectangle width="160" height="30" as="alternateBounds"/>
                    </mxGeometry>
                </mxCell>
                <mxCell id="c7eTBnX2TVwpB23jek4l-84" value="" style="shape=partialRectangle;collapsible=0;dropTarget=0;pointerEvents=0;fillColor=none;top=0;left=0;bottom=0;right=0;points=[[0,0.5],[1,0.5]];portConstraint=eastwest;" vertex="1" parent="c7eTBnX2TVwpB23jek4l-77">
                    <mxGeometry y="90" width="190" height="30" as="geometry"/>
                </mxCell>
                <mxCell id="c7eTBnX2TVwpB23jek4l-85" value="" style="shape=partialRectangle;connectable=0;fillColor=none;top=0;left=0;bottom=0;right=0;editable=1;overflow=hidden;" vertex="1" parent="c7eTBnX2TVwpB23jek4l-84">
                    <mxGeometry width="30" height="30" as="geometry">
                        <mxRectangle width="30" height="30" as="alternateBounds"/>
                    </mxGeometry>
                </mxCell>
                <mxCell id="c7eTBnX2TVwpB23jek4l-86" value="" style="shape=partialRectangle;connectable=0;fillColor=none;top=0;left=0;bottom=0;right=0;align=left;spacingLeft=6;overflow=hidden;" vertex="1" parent="c7eTBnX2TVwpB23jek4l-84">
                    <mxGeometry x="30" width="160" height="30" as="geometry">
                        <mxRectangle width="160" height="30" as="alternateBounds"/>
                    </mxGeometry>
                </mxCell>
                <mxCell id="c7eTBnX2TVwpB23jek4l-87" value="" style="shape=partialRectangle;collapsible=0;dropTarget=0;pointerEvents=0;fillColor=none;top=0;left=0;bottom=0;right=0;points=[[0,0.5],[1,0.5]];portConstraint=eastwest;" vertex="1" parent="c7eTBnX2TVwpB23jek4l-77">
                    <mxGeometry y="120" width="190" height="30" as="geometry"/>
                </mxCell>
                <mxCell id="c7eTBnX2TVwpB23jek4l-88" value="" style="shape=partialRectangle;connectable=0;fillColor=none;top=0;left=0;bottom=0;right=0;editable=1;overflow=hidden;" vertex="1" parent="c7eTBnX2TVwpB23jek4l-87">
                    <mxGeometry width="30" height="30" as="geometry">
                        <mxRectangle width="30" height="30" as="alternateBounds"/>
                    </mxGeometry>
                </mxCell>
                <mxCell id="c7eTBnX2TVwpB23jek4l-89" value="" style="shape=partialRectangle;connectable=0;fillColor=none;top=0;left=0;bottom=0;right=0;align=left;spacingLeft=6;overflow=hidden;" vertex="1" parent="c7eTBnX2TVwpB23jek4l-87">
                    <mxGeometry x="30" width="160" height="30" as="geometry">
                        <mxRectangle width="160" height="30" as="alternateBounds"/>
                    </mxGeometry>
                </mxCell>
                <mxCell id="c7eTBnX2TVwpB23jek4l-90" value="ID" style="text;strokeColor=none;fillColor=none;spacingLeft=4;spacingRight=4;overflow=hidden;rotatable=0;points=[[0,0.5],[1,0.5]];portConstraint=eastwest;fontSize=12;fontStyle=4" vertex="1" parent="0l9OWkSnHtWUdckkpkIx-1">
                    <mxGeometry x="1465" y="350.45" width="160" height="30" as="geometry"/>
                </mxCell>
                <mxCell id="c7eTBnX2TVwpB23jek4l-91" value="titre" style="text;strokeColor=none;fillColor=none;spacingLeft=4;spacingRight=4;overflow=hidden;rotatable=0;points=[[0,0.5],[1,0.5]];portConstraint=eastwest;fontSize=12;" vertex="1" parent="0l9OWkSnHtWUdckkpkIx-1">
                    <mxGeometry x="1465" y="380.45" width="160" height="30" as="geometry"/>
                </mxCell>
                <mxCell id="c7eTBnX2TVwpB23jek4l-92" value="texte" style="text;strokeColor=none;fillColor=none;spacingLeft=4;spacingRight=4;overflow=hidden;rotatable=0;points=[[0,0.5],[1,0.5]];portConstraint=eastwest;fontSize=12;" vertex="1" parent="0l9OWkSnHtWUdckkpkIx-1">
                    <mxGeometry x="1465" y="405.76" width="160" height="34" as="geometry"/>
                </mxCell>
                <mxCell id="c7eTBnX2TVwpB23jek4l-93" value="Nombre de réponses" style="text;strokeColor=none;fillColor=none;spacingLeft=4;spacingRight=4;overflow=hidden;rotatable=0;points=[[0,0.5],[1,0.5]];portConstraint=eastwest;fontSize=12;" vertex="1" parent="0l9OWkSnHtWUdckkpkIx-1">
                    <mxGeometry x="1465" y="430.45" width="160" height="34" as="geometry"/>
                </mxCell>
                <mxCell id="c7eTBnX2TVwpB23jek4l-94" value="commentaire parent" style="text;strokeColor=none;fillColor=none;spacingLeft=4;spacingRight=4;overflow=hidden;rotatable=0;points=[[0,0.5],[1,0.5]];portConstraint=eastwest;fontSize=12;" vertex="1" parent="0l9OWkSnHtWUdckkpkIx-1">
                    <mxGeometry x="1465" y="456.45" width="160" height="34" as="geometry"/>
                </mxCell>
                <mxCell id="c7eTBnX2TVwpB23jek4l-95" value="Modérer" style="shape=table;startSize=30;container=1;collapsible=1;childLayout=tableLayout;fixedRows=1;rowLines=0;fontStyle=1;align=center;resizeLast=1;" vertex="1" parent="0l9OWkSnHtWUdckkpkIx-1">
                    <mxGeometry x="1100" y="20" width="180" height="150" as="geometry"/>
                </mxCell>
                <mxCell id="c7eTBnX2TVwpB23jek4l-96" value="" style="shape=partialRectangle;collapsible=0;dropTarget=0;pointerEvents=0;fillColor=none;top=0;left=0;bottom=0;right=0;points=[[0,0.5],[1,0.5]];portConstraint=eastwest;" vertex="1" parent="c7eTBnX2TVwpB23jek4l-95">
                    <mxGeometry y="30" width="180" height="30" as="geometry"/>
                </mxCell>
                <mxCell id="c7eTBnX2TVwpB23jek4l-97" value="PK,FK1" style="shape=partialRectangle;connectable=0;fillColor=none;top=0;left=0;bottom=0;right=0;fontStyle=1;overflow=hidden;" vertex="1" parent="c7eTBnX2TVwpB23jek4l-96">
                    <mxGeometry width="60" height="30" as="geometry">
                        <mxRectangle width="60" height="30" as="alternateBounds"/>
                    </mxGeometry>
                </mxCell>
                <mxCell id="c7eTBnX2TVwpB23jek4l-98" value="ID_user" style="shape=partialRectangle;connectable=0;fillColor=none;top=0;left=0;bottom=0;right=0;align=left;spacingLeft=6;fontStyle=5;overflow=hidden;" vertex="1" parent="c7eTBnX2TVwpB23jek4l-96">
                    <mxGeometry x="60" width="120" height="30" as="geometry">
                        <mxRectangle width="120" height="30" as="alternateBounds"/>
                    </mxGeometry>
                </mxCell>
                <mxCell id="c7eTBnX2TVwpB23jek4l-99" value="" style="shape=partialRectangle;collapsible=0;dropTarget=0;pointerEvents=0;fillColor=none;top=0;left=0;bottom=1;right=0;points=[[0,0.5],[1,0.5]];portConstraint=eastwest;" vertex="1" parent="c7eTBnX2TVwpB23jek4l-95">
                    <mxGeometry y="60" width="180" height="30" as="geometry"/>
                </mxCell>
                <mxCell id="c7eTBnX2TVwpB23jek4l-100" value="PK,FK2" style="shape=partialRectangle;connectable=0;fillColor=none;top=0;left=0;bottom=0;right=0;fontStyle=1;overflow=hidden;" vertex="1" parent="c7eTBnX2TVwpB23jek4l-99">
                    <mxGeometry width="60" height="30" as="geometry">
                        <mxRectangle width="60" height="30" as="alternateBounds"/>
                    </mxGeometry>
                </mxCell>
                <mxCell id="c7eTBnX2TVwpB23jek4l-101" value="ID_comment" style="shape=partialRectangle;connectable=0;fillColor=none;top=0;left=0;bottom=0;right=0;align=left;spacingLeft=6;fontStyle=5;overflow=hidden;" vertex="1" parent="c7eTBnX2TVwpB23jek4l-99">
                    <mxGeometry x="60" width="120" height="30" as="geometry">
                        <mxRectangle width="120" height="30" as="alternateBounds"/>
                    </mxGeometry>
                </mxCell>
                <mxCell id="c7eTBnX2TVwpB23jek4l-102" value="Abonné" style="shape=table;startSize=30;container=1;collapsible=1;childLayout=tableLayout;fixedRows=1;rowLines=0;fontStyle=1;align=center;resizeLast=1;" vertex="1" parent="0l9OWkSnHtWUdckkpkIx-1">
                    <mxGeometry x="1070" y="200" width="180" height="90" as="geometry"/>
                </mxCell>
                <mxCell id="c7eTBnX2TVwpB23jek4l-103" value="" style="shape=partialRectangle;collapsible=0;dropTarget=0;pointerEvents=0;fillColor=none;top=0;left=0;bottom=0;right=0;points=[[0,0.5],[1,0.5]];portConstraint=eastwest;" vertex="1" parent="c7eTBnX2TVwpB23jek4l-102">
                    <mxGeometry y="30" width="180" height="30" as="geometry"/>
                </mxCell>
                <mxCell id="c7eTBnX2TVwpB23jek4l-104" value="PK,FK1" style="shape=partialRectangle;connectable=0;fillColor=none;top=0;left=0;bottom=0;right=0;fontStyle=1;overflow=hidden;" vertex="1" parent="c7eTBnX2TVwpB23jek4l-103">
                    <mxGeometry width="60" height="30" as="geometry">
                        <mxRectangle width="60" height="30" as="alternateBounds"/>
                    </mxGeometry>
                </mxCell>
                <mxCell id="c7eTBnX2TVwpB23jek4l-105" value="ID_playlist" style="shape=partialRectangle;connectable=0;fillColor=none;top=0;left=0;bottom=0;right=0;align=left;spacingLeft=6;fontStyle=5;overflow=hidden;" vertex="1" parent="c7eTBnX2TVwpB23jek4l-103">
                    <mxGeometry x="60" width="120" height="30" as="geometry">
                        <mxRectangle width="120" height="30" as="alternateBounds"/>
                    </mxGeometry>
                </mxCell>
                <mxCell id="c7eTBnX2TVwpB23jek4l-106" value="" style="shape=partialRectangle;collapsible=0;dropTarget=0;pointerEvents=0;fillColor=none;top=0;left=0;bottom=1;right=0;points=[[0,0.5],[1,0.5]];portConstraint=eastwest;" vertex="1" parent="c7eTBnX2TVwpB23jek4l-102">
                    <mxGeometry y="60" width="180" height="30" as="geometry"/>
                </mxCell>
                <mxCell id="c7eTBnX2TVwpB23jek4l-107" value="PK,FK2" style="shape=partialRectangle;connectable=0;fillColor=none;top=0;left=0;bottom=0;right=0;fontStyle=1;overflow=hidden;" vertex="1" parent="c7eTBnX2TVwpB23jek4l-106">
                    <mxGeometry width="60" height="30" as="geometry">
                        <mxRectangle width="60" height="30" as="alternateBounds"/>
                    </mxGeometry>
                </mxCell>
                <mxCell id="c7eTBnX2TVwpB23jek4l-108" value="ID_user" style="shape=partialRectangle;connectable=0;fillColor=none;top=0;left=0;bottom=0;right=0;align=left;spacingLeft=6;fontStyle=5;overflow=hidden;" vertex="1" parent="c7eTBnX2TVwpB23jek4l-106">
                    <mxGeometry x="60" width="120" height="30" as="geometry">
                        <mxRectangle width="120" height="30" as="alternateBounds"/>
                    </mxGeometry>
                </mxCell>
                <mxCell id="c7eTBnX2TVwpB23jek4l-109" value="Voir" style="shape=table;startSize=30;container=1;collapsible=1;childLayout=tableLayout;fixedRows=1;rowLines=0;fontStyle=1;align=center;resizeLast=1;" vertex="1" parent="0l9OWkSnHtWUdckkpkIx-1">
                    <mxGeometry x="647" y="130" width="180" height="160" as="geometry"/>
                </mxCell>
                <mxCell id="c7eTBnX2TVwpB23jek4l-110" value="" style="shape=partialRectangle;collapsible=0;dropTarget=0;pointerEvents=0;fillColor=none;top=0;left=0;bottom=0;right=0;points=[[0,0.5],[1,0.5]];portConstraint=eastwest;" vertex="1" parent="c7eTBnX2TVwpB23jek4l-109">
                    <mxGeometry y="30" width="180" height="30" as="geometry"/>
                </mxCell>
                <mxCell id="c7eTBnX2TVwpB23jek4l-111" value="PK,FK1" style="shape=partialRectangle;connectable=0;fillColor=none;top=0;left=0;bottom=0;right=0;fontStyle=1;overflow=hidden;" vertex="1" parent="c7eTBnX2TVwpB23jek4l-110">
                    <mxGeometry width="60" height="30" as="geometry">
                        <mxRectangle width="60" height="30" as="alternateBounds"/>
                    </mxGeometry>
                </mxCell>
                <mxCell id="c7eTBnX2TVwpB23jek4l-112" value="ID_user" style="shape=partialRectangle;connectable=0;fillColor=none;top=0;left=0;bottom=0;right=0;align=left;spacingLeft=6;fontStyle=5;overflow=hidden;" vertex="1" parent="c7eTBnX2TVwpB23jek4l-110">
                    <mxGeometry x="60" width="120" height="30" as="geometry">
                        <mxRectangle width="120" height="30" as="alternateBounds"/>
                    </mxGeometry>
                </mxCell>
                <mxCell id="c7eTBnX2TVwpB23jek4l-113" value="" style="shape=partialRectangle;collapsible=0;dropTarget=0;pointerEvents=0;fillColor=none;top=0;left=0;bottom=1;right=0;points=[[0,0.5],[1,0.5]];portConstraint=eastwest;" vertex="1" parent="c7eTBnX2TVwpB23jek4l-109">
                    <mxGeometry y="60" width="180" height="40" as="geometry"/>
                </mxCell>
                <mxCell id="c7eTBnX2TVwpB23jek4l-114" value="PK,FK2" style="shape=partialRectangle;connectable=0;fillColor=none;top=0;left=0;bottom=0;right=0;fontStyle=1;overflow=hidden;" vertex="1" parent="c7eTBnX2TVwpB23jek4l-113">
                    <mxGeometry width="60" height="40" as="geometry">
                        <mxRectangle width="60" height="40" as="alternateBounds"/>
                    </mxGeometry>
                </mxCell>
                <mxCell id="c7eTBnX2TVwpB23jek4l-115" value="ID_media" style="shape=partialRectangle;connectable=0;fillColor=none;top=0;left=0;bottom=0;right=0;align=left;spacingLeft=6;fontStyle=5;overflow=hidden;" vertex="1" parent="c7eTBnX2TVwpB23jek4l-113">
                    <mxGeometry x="60" width="120" height="40" as="geometry">
                        <mxRectangle width="120" height="40" as="alternateBounds"/>
                    </mxGeometry>
                </mxCell>
                <mxCell id="c7eTBnX2TVwpB23jek4l-116" value="Appartient" style="shape=table;startSize=30;container=1;collapsible=1;childLayout=tableLayout;fixedRows=1;rowLines=0;fontStyle=1;align=center;resizeLast=1;" vertex="1" parent="0l9OWkSnHtWUdckkpkIx-1">
                    <mxGeometry x="950" y="790" width="180" height="90" as="geometry"/>
                </mxCell>
                <mxCell id="c7eTBnX2TVwpB23jek4l-117" value="" style="shape=partialRectangle;collapsible=0;dropTarget=0;pointerEvents=0;fillColor=none;top=0;left=0;bottom=0;right=0;points=[[0,0.5],[1,0.5]];portConstraint=eastwest;" vertex="1" parent="c7eTBnX2TVwpB23jek4l-116">
                    <mxGeometry y="30" width="180" height="30" as="geometry"/>
                </mxCell>
                <mxCell id="c7eTBnX2TVwpB23jek4l-118" value="PK,FK1" style="shape=partialRectangle;connectable=0;fillColor=none;top=0;left=0;bottom=0;right=0;fontStyle=1;overflow=hidden;" vertex="1" parent="c7eTBnX2TVwpB23jek4l-117">
                    <mxGeometry width="60" height="30" as="geometry">
                        <mxRectangle width="60" height="30" as="alternateBounds"/>
                    </mxGeometry>
                </mxCell>
                <mxCell id="c7eTBnX2TVwpB23jek4l-119" value="ID_media" style="shape=partialRectangle;connectable=0;fillColor=none;top=0;left=0;bottom=0;right=0;align=left;spacingLeft=6;fontStyle=5;overflow=hidden;" vertex="1" parent="c7eTBnX2TVwpB23jek4l-117">
                    <mxGeometry x="60" width="120" height="30" as="geometry">
                        <mxRectangle width="120" height="30" as="alternateBounds"/>
                    </mxGeometry>
                </mxCell>
                <mxCell id="c7eTBnX2TVwpB23jek4l-120" value="" style="shape=partialRectangle;collapsible=0;dropTarget=0;pointerEvents=0;fillColor=none;top=0;left=0;bottom=1;right=0;points=[[0,0.5],[1,0.5]];portConstraint=eastwest;" vertex="1" parent="c7eTBnX2TVwpB23jek4l-116">
                    <mxGeometry y="60" width="180" height="30" as="geometry"/>
                </mxCell>
                <mxCell id="c7eTBnX2TVwpB23jek4l-121" value="PK,FK2" style="shape=partialRectangle;connectable=0;fillColor=none;top=0;left=0;bottom=0;right=0;fontStyle=1;overflow=hidden;" vertex="1" parent="c7eTBnX2TVwpB23jek4l-120">
                    <mxGeometry width="60" height="30" as="geometry">
                        <mxRectangle width="60" height="30" as="alternateBounds"/>
                    </mxGeometry>
                </mxCell>
                <mxCell id="c7eTBnX2TVwpB23jek4l-122" value="ID_com" style="shape=partialRectangle;connectable=0;fillColor=none;top=0;left=0;bottom=0;right=0;align=left;spacingLeft=6;fontStyle=5;overflow=hidden;" vertex="1" parent="c7eTBnX2TVwpB23jek4l-120">
                    <mxGeometry x="60" width="120" height="30" as="geometry">
                        <mxRectangle width="120" height="30" as="alternateBounds"/>
                    </mxGeometry>
                </mxCell>
                <mxCell id="c7eTBnX2TVwpB23jek4l-123" value="Possede" style="shape=table;startSize=30;container=1;collapsible=1;childLayout=tableLayout;fixedRows=1;rowLines=0;fontStyle=1;align=center;resizeLast=1;" vertex="1" parent="0l9OWkSnHtWUdckkpkIx-1">
                    <mxGeometry x="1079.41" y="650" width="180" height="124.24" as="geometry"/>
                </mxCell>
                <mxCell id="c7eTBnX2TVwpB23jek4l-124" value="" style="shape=partialRectangle;collapsible=0;dropTarget=0;pointerEvents=0;fillColor=none;top=0;left=0;bottom=0;right=0;points=[[0,0.5],[1,0.5]];portConstraint=eastwest;" vertex="1" parent="c7eTBnX2TVwpB23jek4l-123">
                    <mxGeometry y="30" width="180" height="30" as="geometry"/>
                </mxCell>
                <mxCell id="c7eTBnX2TVwpB23jek4l-125" value="PK,FK1" style="shape=partialRectangle;connectable=0;fillColor=none;top=0;left=0;bottom=0;right=0;fontStyle=1;overflow=hidden;" vertex="1" parent="c7eTBnX2TVwpB23jek4l-124">
                    <mxGeometry width="60" height="30" as="geometry">
                        <mxRectangle width="60" height="30" as="alternateBounds"/>
                    </mxGeometry>
                </mxCell>
                <mxCell id="c7eTBnX2TVwpB23jek4l-126" value="ID_playlist" style="shape=partialRectangle;connectable=0;fillColor=none;top=0;left=0;bottom=0;right=0;align=left;spacingLeft=6;fontStyle=5;overflow=hidden;" vertex="1" parent="c7eTBnX2TVwpB23jek4l-124">
                    <mxGeometry x="60" width="120" height="30" as="geometry">
                        <mxRectangle width="120" height="30" as="alternateBounds"/>
                    </mxGeometry>
                </mxCell>
                <mxCell id="c7eTBnX2TVwpB23jek4l-127" value="" style="shape=partialRectangle;collapsible=0;dropTarget=0;pointerEvents=0;fillColor=none;top=0;left=0;bottom=1;right=0;points=[[0,0.5],[1,0.5]];portConstraint=eastwest;" vertex="1" parent="c7eTBnX2TVwpB23jek4l-123">
                    <mxGeometry y="60" width="180" height="30" as="geometry"/>
                </mxCell>
                <mxCell id="c7eTBnX2TVwpB23jek4l-128" value="PK,FK2" style="shape=partialRectangle;connectable=0;fillColor=none;top=0;left=0;bottom=0;right=0;fontStyle=1;overflow=hidden;" vertex="1" parent="c7eTBnX2TVwpB23jek4l-127">
                    <mxGeometry width="60" height="30" as="geometry">
                        <mxRectangle width="60" height="30" as="alternateBounds"/>
                    </mxGeometry>
                </mxCell>
                <mxCell id="c7eTBnX2TVwpB23jek4l-129" value="ID_user" style="shape=partialRectangle;connectable=0;fillColor=none;top=0;left=0;bottom=0;right=0;align=left;spacingLeft=6;fontStyle=5;overflow=hidden;" vertex="1" parent="c7eTBnX2TVwpB23jek4l-127">
                    <mxGeometry x="60" width="120" height="30" as="geometry">
                        <mxRectangle width="120" height="30" as="alternateBounds"/>
                    </mxGeometry>
                </mxCell>
                <mxCell id="c7eTBnX2TVwpB23jek4l-130" value="Signaler" style="shape=table;startSize=30;container=1;collapsible=1;childLayout=tableLayout;fixedRows=1;rowLines=0;fontStyle=1;align=center;resizeLast=1;" vertex="1" parent="0l9OWkSnHtWUdckkpkIx-1">
                    <mxGeometry x="690" y="368" width="180" height="150" as="geometry"/>
                </mxCell>
                <mxCell id="c7eTBnX2TVwpB23jek4l-131" value="" style="shape=partialRectangle;collapsible=0;dropTarget=0;pointerEvents=0;fillColor=none;top=0;left=0;bottom=0;right=0;points=[[0,0.5],[1,0.5]];portConstraint=eastwest;" vertex="1" parent="c7eTBnX2TVwpB23jek4l-130">
                    <mxGeometry y="30" width="180" height="30" as="geometry"/>
                </mxCell>
                <mxCell id="c7eTBnX2TVwpB23jek4l-132" value="PK,FK1" style="shape=partialRectangle;connectable=0;fillColor=none;top=0;left=0;bottom=0;right=0;fontStyle=1;overflow=hidden;" vertex="1" parent="c7eTBnX2TVwpB23jek4l-131">
                    <mxGeometry width="60" height="30" as="geometry">
                        <mxRectangle width="60" height="30" as="alternateBounds"/>
                    </mxGeometry>
                </mxCell>
                <mxCell id="c7eTBnX2TVwpB23jek4l-133" value="ID1" style="shape=partialRectangle;connectable=0;fillColor=none;top=0;left=0;bottom=0;right=0;align=left;spacingLeft=6;fontStyle=5;overflow=hidden;" vertex="1" parent="c7eTBnX2TVwpB23jek4l-131">
                    <mxGeometry x="60" width="120" height="30" as="geometry">
                        <mxRectangle width="120" height="30" as="alternateBounds"/>
                    </mxGeometry>
                </mxCell>
                <mxCell id="c7eTBnX2TVwpB23jek4l-134" value="" style="shape=partialRectangle;collapsible=0;dropTarget=0;pointerEvents=0;fillColor=none;top=0;left=0;bottom=1;right=0;points=[[0,0.5],[1,0.5]];portConstraint=eastwest;" vertex="1" parent="c7eTBnX2TVwpB23jek4l-130">
                    <mxGeometry y="60" width="180" height="30" as="geometry"/>
                </mxCell>
                <mxCell id="c7eTBnX2TVwpB23jek4l-135" value="PK,FK2" style="shape=partialRectangle;connectable=0;fillColor=none;top=0;left=0;bottom=0;right=0;fontStyle=1;overflow=hidden;" vertex="1" parent="c7eTBnX2TVwpB23jek4l-134">
                    <mxGeometry width="60" height="30" as="geometry">
                        <mxRectangle width="60" height="30" as="alternateBounds"/>
                    </mxGeometry>
                </mxCell>
                <mxCell id="c7eTBnX2TVwpB23jek4l-136" value="ID2" style="shape=partialRectangle;connectable=0;fillColor=none;top=0;left=0;bottom=0;right=0;align=left;spacingLeft=6;fontStyle=5;overflow=hidden;" vertex="1" parent="c7eTBnX2TVwpB23jek4l-134">
                    <mxGeometry x="60" width="120" height="30" as="geometry">
                        <mxRectangle width="120" height="30" as="alternateBounds"/>
                    </mxGeometry>
                </mxCell>
                <mxCell id="c7eTBnX2TVwpB23jek4l-137" value="" style="shape=partialRectangle;collapsible=0;dropTarget=0;pointerEvents=0;fillColor=none;top=0;left=0;bottom=0;right=0;points=[[0,0.5],[1,0.5]];portConstraint=eastwest;" vertex="1" parent="c7eTBnX2TVwpB23jek4l-130">
                    <mxGeometry y="90" width="180" height="30" as="geometry"/>
                </mxCell>
                <mxCell id="c7eTBnX2TVwpB23jek4l-138" value="" style="shape=partialRectangle;connectable=0;fillColor=none;top=0;left=0;bottom=0;right=0;editable=1;overflow=hidden;" vertex="1" parent="c7eTBnX2TVwpB23jek4l-137">
                    <mxGeometry width="60" height="30" as="geometry">
                        <mxRectangle width="60" height="30" as="alternateBounds"/>
                    </mxGeometry>
                </mxCell>
                <mxCell id="c7eTBnX2TVwpB23jek4l-139" value="Message" style="shape=partialRectangle;connectable=0;fillColor=none;top=0;left=0;bottom=0;right=0;align=left;spacingLeft=6;overflow=hidden;" vertex="1" parent="c7eTBnX2TVwpB23jek4l-137">
                    <mxGeometry x="60" width="120" height="30" as="geometry">
                        <mxRectangle width="120" height="30" as="alternateBounds"/>
                    </mxGeometry>
                </mxCell>
                <mxCell id="c7eTBnX2TVwpB23jek4l-140" value="" style="shape=partialRectangle;collapsible=0;dropTarget=0;pointerEvents=0;fillColor=none;top=0;left=0;bottom=0;right=0;points=[[0,0.5],[1,0.5]];portConstraint=eastwest;" vertex="1" parent="c7eTBnX2TVwpB23jek4l-130">
                    <mxGeometry y="120" width="180" height="30" as="geometry"/>
                </mxCell>
                <mxCell id="c7eTBnX2TVwpB23jek4l-141" value="" style="shape=partialRectangle;connectable=0;fillColor=none;top=0;left=0;bottom=0;right=0;editable=1;overflow=hidden;" vertex="1" parent="c7eTBnX2TVwpB23jek4l-140">
                    <mxGeometry width="60" height="30" as="geometry">
                        <mxRectangle width="60" height="30" as="alternateBounds"/>
                    </mxGeometry>
                </mxCell>
                <mxCell id="c7eTBnX2TVwpB23jek4l-142" value="Date" style="shape=partialRectangle;connectable=0;fillColor=none;top=0;left=0;bottom=0;right=0;align=left;spacingLeft=6;overflow=hidden;" vertex="1" parent="c7eTBnX2TVwpB23jek4l-140">
                    <mxGeometry x="60" width="120" height="30" as="geometry">
                        <mxRectangle width="120" height="30" as="alternateBounds"/>
                    </mxGeometry>
                </mxCell>
                <mxCell id="c7eTBnX2TVwpB23jek4l-143" value="" style="shape=partialRectangle;collapsible=0;dropTarget=0;pointerEvents=0;fillColor=none;top=0;left=0;bottom=0;right=0;points=[[0,0.5],[1,0.5]];portConstraint=eastwest;" vertex="1" parent="0l9OWkSnHtWUdckkpkIx-1">
                    <mxGeometry x="1100" y="110" width="180" height="30" as="geometry"/>
                </mxCell>
                <mxCell id="c7eTBnX2TVwpB23jek4l-144" value="" style="shape=partialRectangle;connectable=0;fillColor=none;top=0;left=0;bottom=0;right=0;editable=1;overflow=hidden;" vertex="1" parent="c7eTBnX2TVwpB23jek4l-143">
                    <mxGeometry width="60" height="30" as="geometry">
                        <mxRectangle width="60" height="30" as="alternateBounds"/>
                    </mxGeometry>
                </mxCell>
                <mxCell id="c7eTBnX2TVwpB23jek4l-145" value="Message" style="shape=partialRectangle;connectable=0;fillColor=none;top=0;left=0;bottom=0;right=0;align=left;spacingLeft=6;overflow=hidden;" vertex="1" parent="c7eTBnX2TVwpB23jek4l-143">
                    <mxGeometry x="60" width="120" height="30" as="geometry">
                        <mxRectangle width="120" height="30" as="alternateBounds"/>
                    </mxGeometry>
                </mxCell>
                <mxCell id="c7eTBnX2TVwpB23jek4l-146" value="" style="shape=partialRectangle;collapsible=0;dropTarget=0;pointerEvents=0;fillColor=none;top=0;left=0;bottom=0;right=0;points=[[0,0.5],[1,0.5]];portConstraint=eastwest;" vertex="1" parent="0l9OWkSnHtWUdckkpkIx-1">
                    <mxGeometry x="1100" y="140" width="180" height="30" as="geometry"/>
                </mxCell>
                <mxCell id="c7eTBnX2TVwpB23jek4l-147" value="" style="shape=partialRectangle;connectable=0;fillColor=none;top=0;left=0;bottom=0;right=0;editable=1;overflow=hidden;" vertex="1" parent="c7eTBnX2TVwpB23jek4l-146">
                    <mxGeometry width="60" height="30" as="geometry">
                        <mxRectangle width="60" height="30" as="alternateBounds"/>
                    </mxGeometry>
                </mxCell>
                <mxCell id="c7eTBnX2TVwpB23jek4l-148" value="Date" style="shape=partialRectangle;connectable=0;fillColor=none;top=0;left=0;bottom=0;right=0;align=left;spacingLeft=6;overflow=hidden;" vertex="1" parent="c7eTBnX2TVwpB23jek4l-146">
                    <mxGeometry x="60" width="120" height="30" as="geometry">
                        <mxRectangle width="120" height="30" as="alternateBounds"/>
                    </mxGeometry>
                </mxCell>
                <mxCell id="c7eTBnX2TVwpB23jek4l-149" style="edgeStyle=orthogonalEdgeStyle;rounded=0;orthogonalLoop=1;jettySize=auto;html=1;exitX=1;exitY=0.5;exitDx=0;exitDy=0;" edge="1" parent="0l9OWkSnHtWUdckkpkIx-1" source="c7eTBnX2TVwpB23jek4l-137">
                    <mxGeometry relative="1" as="geometry">
                        <mxPoint x="889.9999999999995" y="485" as="targetPoint"/>
                        <Array as="points">
                            <mxPoint x="870" y="485"/>
                        </Array>
                    </mxGeometry>
                </mxCell>
                <mxCell id="c7eTBnX2TVwpB23jek4l-150" value="Date_bloqué" style="text;strokeColor=none;fillColor=none;spacingLeft=4;spacingRight=4;overflow=hidden;rotatable=0;points=[[0,0.5],[1,0.5]];portConstraint=eastwest;fontSize=12;" vertex="1" parent="0l9OWkSnHtWUdckkpkIx-1">
                    <mxGeometry x="919.41" y="548" width="160" height="30" as="geometry"/>
                </mxCell>
                <mxCell id="c7eTBnX2TVwpB23jek4l-151" value="Date_débloqué" style="text;strokeColor=none;fillColor=none;spacingLeft=4;spacingRight=4;overflow=hidden;rotatable=0;points=[[0,0.5],[1,0.5]];portConstraint=eastwest;fontSize=12;" vertex="1" parent="0l9OWkSnHtWUdckkpkIx-1">
                    <mxGeometry x="919.41" y="578" width="160" height="30" as="geometry"/>
                </mxCell>
                <mxCell id="c7eTBnX2TVwpB23jek4l-152" value="" style="shape=partialRectangle;collapsible=0;dropTarget=0;pointerEvents=0;fillColor=none;top=0;left=0;bottom=0;right=0;points=[[0,0.5],[1,0.5]];portConstraint=eastwest;" vertex="1" parent="0l9OWkSnHtWUdckkpkIx-1">
                    <mxGeometry x="647" y="230" width="180" height="30" as="geometry"/>
                </mxCell>
                <mxCell id="c7eTBnX2TVwpB23jek4l-153" value="" style="shape=partialRectangle;connectable=0;fillColor=none;top=0;left=0;bottom=0;right=0;editable=1;overflow=hidden;" vertex="1" parent="c7eTBnX2TVwpB23jek4l-152">
                    <mxGeometry width="60" height="30" as="geometry">
                        <mxRectangle width="60" height="30" as="alternateBounds"/>
                    </mxGeometry>
                </mxCell>
                <mxCell id="c7eTBnX2TVwpB23jek4l-154" value="Date" style="shape=partialRectangle;connectable=0;fillColor=none;top=0;left=0;bottom=0;right=0;align=left;spacingLeft=6;overflow=hidden;" vertex="1" parent="c7eTBnX2TVwpB23jek4l-152">
                    <mxGeometry x="60" width="120" height="30" as="geometry">
                        <mxRectangle width="120" height="30" as="alternateBounds"/>
                    </mxGeometry>
                </mxCell>
                <mxCell id="c7eTBnX2TVwpB23jek4l-155" value="" style="shape=partialRectangle;collapsible=0;dropTarget=0;pointerEvents=0;fillColor=none;top=0;left=0;bottom=0;right=0;points=[[0,0.5],[1,0.5]];portConstraint=eastwest;" vertex="1" parent="0l9OWkSnHtWUdckkpkIx-1">
                    <mxGeometry x="1079.41" y="744.24" width="180" height="30" as="geometry"/>
                </mxCell>
                <mxCell id="c7eTBnX2TVwpB23jek4l-156" value="" style="shape=partialRectangle;connectable=0;fillColor=none;top=0;left=0;bottom=0;right=0;editable=1;overflow=hidden;" vertex="1" parent="c7eTBnX2TVwpB23jek4l-155">
                    <mxGeometry width="60" height="30" as="geometry">
                        <mxRectangle width="60" height="30" as="alternateBounds"/>
                    </mxGeometry>
                </mxCell>
                <mxCell id="c7eTBnX2TVwpB23jek4l-157" value="Date" style="shape=partialRectangle;connectable=0;fillColor=none;top=0;left=0;bottom=0;right=0;align=left;spacingLeft=6;overflow=hidden;" vertex="1" parent="c7eTBnX2TVwpB23jek4l-155">
                    <mxGeometry x="60" width="120" height="30" as="geometry">
                        <mxRectangle width="120" height="30" as="alternateBounds"/>
                    </mxGeometry>
                </mxCell>
                <mxCell id="c7eTBnX2TVwpB23jek4l-158" value="est_signalé" style="text;strokeColor=none;fillColor=none;spacingLeft=4;spacingRight=4;overflow=hidden;rotatable=0;points=[[0,0.5],[1,0.5]];portConstraint=eastwest;fontSize=12;" vertex="1" parent="0l9OWkSnHtWUdckkpkIx-1">
                    <mxGeometry x="1465" y="484" width="160" height="34" as="geometry"/>
                </mxCell>
                <mxCell id="c7eTBnX2TVwpB23jek4l-159" value="Type" style="text;strokeColor=none;fillColor=none;spacingLeft=4;spacingRight=4;overflow=hidden;rotatable=0;points=[[0,0.5],[1,0.5]];portConstraint=eastwest;fontSize=12;" vertex="1" parent="0l9OWkSnHtWUdckkpkIx-1">
                    <mxGeometry x="410" y="580" width="160" height="30" as="geometry"/>
                </mxCell>
                <mxCell id="c7eTBnX2TVwpB23jek4l-160" value="Person" style="shape=table;startSize=30;container=1;collapsible=1;childLayout=tableLayout;fixedRows=1;rowLines=0;fontStyle=1;align=center;resizeLast=1;" vertex="1" parent="0l9OWkSnHtWUdckkpkIx-1">
                    <mxGeometry x="60" y="405.76" width="190" height="180" as="geometry"/>
                </mxCell>
                <mxCell id="c7eTBnX2TVwpB23jek4l-161" value="" style="shape=partialRectangle;collapsible=0;dropTarget=0;pointerEvents=0;fillColor=none;top=0;left=0;bottom=1;right=0;points=[[0,0.5],[1,0.5]];portConstraint=eastwest;" vertex="1" parent="c7eTBnX2TVwpB23jek4l-160">
                    <mxGeometry y="30" width="190" height="30" as="geometry"/>
                </mxCell>
                <mxCell id="c7eTBnX2TVwpB23jek4l-162" value="PK" style="shape=partialRectangle;connectable=0;fillColor=none;top=0;left=0;bottom=0;right=0;fontStyle=1;overflow=hidden;" vertex="1" parent="c7eTBnX2TVwpB23jek4l-161">
                    <mxGeometry width="30" height="30" as="geometry">
                        <mxRectangle width="30" height="30" as="alternateBounds"/>
                    </mxGeometry>
                </mxCell>
                <mxCell id="c7eTBnX2TVwpB23jek4l-163" value="ID" style="shape=partialRectangle;connectable=0;fillColor=none;top=0;left=0;bottom=0;right=0;align=left;spacingLeft=6;fontStyle=5;overflow=hidden;" vertex="1" parent="c7eTBnX2TVwpB23jek4l-161">
                    <mxGeometry x="30" width="160" height="30" as="geometry">
                        <mxRectangle width="160" height="30" as="alternateBounds"/>
                    </mxGeometry>
                </mxCell>
                <mxCell id="c7eTBnX2TVwpB23jek4l-164" value="" style="shape=partialRectangle;collapsible=0;dropTarget=0;pointerEvents=0;fillColor=none;top=0;left=0;bottom=0;right=0;points=[[0,0.5],[1,0.5]];portConstraint=eastwest;" vertex="1" parent="c7eTBnX2TVwpB23jek4l-160">
                    <mxGeometry y="60" width="190" height="30" as="geometry"/>
                </mxCell>
                <mxCell id="c7eTBnX2TVwpB23jek4l-165" value="" style="shape=partialRectangle;connectable=0;fillColor=none;top=0;left=0;bottom=0;right=0;editable=1;overflow=hidden;" vertex="1" parent="c7eTBnX2TVwpB23jek4l-164">
                    <mxGeometry width="30" height="30" as="geometry">
                        <mxRectangle width="30" height="30" as="alternateBounds"/>
                    </mxGeometry>
                </mxCell>
                <mxCell id="c7eTBnX2TVwpB23jek4l-166" value="" style="shape=partialRectangle;connectable=0;fillColor=none;top=0;left=0;bottom=0;right=0;align=left;spacingLeft=6;overflow=hidden;" vertex="1" parent="c7eTBnX2TVwpB23jek4l-164">
                    <mxGeometry x="30" width="160" height="30" as="geometry">
                        <mxRectangle width="160" height="30" as="alternateBounds"/>
                    </mxGeometry>
                </mxCell>
                <mxCell id="c7eTBnX2TVwpB23jek4l-167" value="" style="shape=partialRectangle;collapsible=0;dropTarget=0;pointerEvents=0;fillColor=none;top=0;left=0;bottom=0;right=0;points=[[0,0.5],[1,0.5]];portConstraint=eastwest;" vertex="1" parent="c7eTBnX2TVwpB23jek4l-160">
                    <mxGeometry y="90" width="190" height="30" as="geometry"/>
                </mxCell>
                <mxCell id="c7eTBnX2TVwpB23jek4l-168" value="" style="shape=partialRectangle;connectable=0;fillColor=none;top=0;left=0;bottom=0;right=0;editable=1;overflow=hidden;" vertex="1" parent="c7eTBnX2TVwpB23jek4l-167">
                    <mxGeometry width="30" height="30" as="geometry">
                        <mxRectangle width="30" height="30" as="alternateBounds"/>
                    </mxGeometry>
                </mxCell>
                <mxCell id="c7eTBnX2TVwpB23jek4l-169" value="" style="shape=partialRectangle;connectable=0;fillColor=none;top=0;left=0;bottom=0;right=0;align=left;spacingLeft=6;overflow=hidden;" vertex="1" parent="c7eTBnX2TVwpB23jek4l-167">
                    <mxGeometry x="30" width="160" height="30" as="geometry">
                        <mxRectangle width="160" height="30" as="alternateBounds"/>
                    </mxGeometry>
                </mxCell>
                <mxCell id="c7eTBnX2TVwpB23jek4l-170" value="" style="shape=partialRectangle;collapsible=0;dropTarget=0;pointerEvents=0;fillColor=none;top=0;left=0;bottom=0;right=0;points=[[0,0.5],[1,0.5]];portConstraint=eastwest;" vertex="1" parent="c7eTBnX2TVwpB23jek4l-160">
                    <mxGeometry y="120" width="190" height="30" as="geometry"/>
                </mxCell>
                <mxCell id="c7eTBnX2TVwpB23jek4l-171" value="" style="shape=partialRectangle;connectable=0;fillColor=none;top=0;left=0;bottom=0;right=0;editable=1;overflow=hidden;" vertex="1" parent="c7eTBnX2TVwpB23jek4l-170">
                    <mxGeometry width="30" height="30" as="geometry">
                        <mxRectangle width="30" height="30" as="alternateBounds"/>
                    </mxGeometry>
                </mxCell>
                <mxCell id="c7eTBnX2TVwpB23jek4l-172" value="" style="shape=partialRectangle;connectable=0;fillColor=none;top=0;left=0;bottom=0;right=0;align=left;spacingLeft=6;overflow=hidden;" vertex="1" parent="c7eTBnX2TVwpB23jek4l-170">
                    <mxGeometry x="30" width="160" height="30" as="geometry">
                        <mxRectangle width="160" height="30" as="alternateBounds"/>
                    </mxGeometry>
                </mxCell>
                <mxCell id="c7eTBnX2TVwpB23jek4l-173" value="name" style="text;strokeColor=none;fillColor=none;spacingLeft=4;spacingRight=4;overflow=hidden;rotatable=0;points=[[0,0.5],[1,0.5]];portConstraint=eastwest;fontSize=12;fontStyle=0" vertex="1" parent="0l9OWkSnHtWUdckkpkIx-1">
                    <mxGeometry x="90" y="465.76" width="150" height="30" as="geometry"/>
                </mxCell>
                <mxCell id="c7eTBnX2TVwpB23jek4l-174" value="first_name" style="text;strokeColor=none;fillColor=none;spacingLeft=4;spacingRight=4;overflow=hidden;rotatable=0;points=[[0,0.5],[1,0.5]];portConstraint=eastwest;fontSize=12;" vertex="1" parent="0l9OWkSnHtWUdckkpkIx-1">
                    <mxGeometry x="90" y="495.76" width="160" height="30" as="geometry"/>
                </mxCell>
                <mxCell id="c7eTBnX2TVwpB23jek4l-175" value="is_actor" style="text;strokeColor=none;fillColor=none;spacingLeft=4;spacingRight=4;overflow=hidden;rotatable=0;points=[[0,0.5],[1,0.5]];portConstraint=eastwest;fontSize=12;" vertex="1" parent="0l9OWkSnHtWUdckkpkIx-1">
                    <mxGeometry x="90" y="526.21" width="160" height="30" as="geometry"/>
                </mxCell>
                <mxCell id="c7eTBnX2TVwpB23jek4l-176" value="is_director" style="text;strokeColor=none;fillColor=none;spacingLeft=4;spacingRight=4;overflow=hidden;rotatable=0;points=[[0,0.5],[1,0.5]];portConstraint=eastwest;fontSize=12;" vertex="1" parent="0l9OWkSnHtWUdckkpkIx-1">
                    <mxGeometry x="90" y="556.21" width="160" height="33.79" as="geometry"/>
                </mxCell>
                <mxCell id="c7eTBnX2TVwpB23jek4l-177" style="edgeStyle=orthogonalEdgeStyle;rounded=0;orthogonalLoop=1;jettySize=auto;html=1;" edge="1" parent="0l9OWkSnHtWUdckkpkIx-1" source="c7eTBnX2TVwpB23jek4l-178" target="c7eTBnX2TVwpB23jek4l-160">
                    <mxGeometry relative="1" as="geometry"/>
                </mxCell>
                <mxCell id="c7eTBnX2TVwpB23jek4l-178" value="compose" style="shape=table;startSize=30;container=1;collapsible=1;childLayout=tableLayout;fixedRows=1;rowLines=0;fontStyle=1;align=center;resizeLast=1;" vertex="1" parent="0l9OWkSnHtWUdckkpkIx-1">
                    <mxGeometry x="65" y="250.45" width="180" height="100" as="geometry"/>
                </mxCell>
                <mxCell id="c7eTBnX2TVwpB23jek4l-179" value="" style="shape=partialRectangle;collapsible=0;dropTarget=0;pointerEvents=0;fillColor=none;top=0;left=0;bottom=0;right=0;points=[[0,0.5],[1,0.5]];portConstraint=eastwest;" vertex="1" parent="c7eTBnX2TVwpB23jek4l-178">
                    <mxGeometry y="30" width="180" height="30" as="geometry"/>
                </mxCell>
                <mxCell id="c7eTBnX2TVwpB23jek4l-180" value="PK,FK1" style="shape=partialRectangle;connectable=0;fillColor=none;top=0;left=0;bottom=0;right=0;fontStyle=1;overflow=hidden;" vertex="1" parent="c7eTBnX2TVwpB23jek4l-179">
                    <mxGeometry width="60" height="30" as="geometry">
                        <mxRectangle width="60" height="30" as="alternateBounds"/>
                    </mxGeometry>
                </mxCell>
                <mxCell id="c7eTBnX2TVwpB23jek4l-181" value="ID_person" style="shape=partialRectangle;connectable=0;fillColor=none;top=0;left=0;bottom=0;right=0;align=left;spacingLeft=6;fontStyle=5;overflow=hidden;" vertex="1" parent="c7eTBnX2TVwpB23jek4l-179">
                    <mxGeometry x="60" width="120" height="30" as="geometry">
                        <mxRectangle width="120" height="30" as="alternateBounds"/>
                    </mxGeometry>
                </mxCell>
                <mxCell id="c7eTBnX2TVwpB23jek4l-182" value="" style="shape=partialRectangle;collapsible=0;dropTarget=0;pointerEvents=0;fillColor=none;top=0;left=0;bottom=1;right=0;points=[[0,0.5],[1,0.5]];portConstraint=eastwest;" vertex="1" parent="c7eTBnX2TVwpB23jek4l-178">
                    <mxGeometry y="60" width="180" height="40" as="geometry"/>
                </mxCell>
                <mxCell id="c7eTBnX2TVwpB23jek4l-183" value="PK,FK2" style="shape=partialRectangle;connectable=0;fillColor=none;top=0;left=0;bottom=0;right=0;fontStyle=1;overflow=hidden;" vertex="1" parent="c7eTBnX2TVwpB23jek4l-182">
                    <mxGeometry width="60" height="40" as="geometry">
                        <mxRectangle width="60" height="40" as="alternateBounds"/>
                    </mxGeometry>
                </mxCell>
                <mxCell id="c7eTBnX2TVwpB23jek4l-184" value="ID_media" style="shape=partialRectangle;connectable=0;fillColor=none;top=0;left=0;bottom=0;right=0;align=left;spacingLeft=6;fontStyle=5;overflow=hidden;" vertex="1" parent="c7eTBnX2TVwpB23jek4l-182">
                    <mxGeometry x="60" width="120" height="40" as="geometry">
                        <mxRectangle width="120" height="40" as="alternateBounds"/>
                    </mxGeometry>
                </mxCell>
                <mxCell id="c7eTBnX2TVwpB23jek4l-185" style="edgeStyle=orthogonalEdgeStyle;rounded=0;orthogonalLoop=1;jettySize=auto;html=1;exitX=0.007;exitY=0.048;exitDx=0;exitDy=0;exitPerimeter=0;" edge="1" parent="0l9OWkSnHtWUdckkpkIx-1" source="c7eTBnX2TVwpB23jek4l-18" target="c7eTBnX2TVwpB23jek4l-178">
                    <mxGeometry relative="1" as="geometry">
                        <mxPoint x="350" y="380" as="sourcePoint"/>
                        <Array as="points">
                            <mxPoint x="300" y="300"/>
                            <mxPoint x="300" y="300"/>
                        </Array>
                    </mxGeometry>
                </mxCell>
                <mxCell id="c7eTBnX2TVwpB23jek4l-186" value="update_time&#10;" style="text;strokeColor=none;fillColor=none;spacingLeft=4;spacingRight=4;overflow=hidden;rotatable=0;points=[[0,0.5],[1,0.5]];portConstraint=eastwest;fontSize=12;" vertex="1" parent="0l9OWkSnHtWUdckkpkIx-1">
                    <mxGeometry x="414" y="610" width="160" height="30" as="geometry"/>
                </mxCell>
                <mxCell id="c7eTBnX2TVwpB23jek4l-187" value="creation_time" style="text;strokeColor=none;fillColor=none;spacingLeft=4;spacingRight=4;overflow=hidden;rotatable=0;points=[[0,0.5],[1,0.5]];portConstraint=eastwest;fontSize=12;" vertex="1" parent="0l9OWkSnHtWUdckkpkIx-1">
                    <mxGeometry x="414" y="640" width="160" height="30" as="geometry"/>
                </mxCell>
                <mxCell id="c7eTBnX2TVwpB23jek4l-188" value="category" style="shape=table;startSize=30;container=1;collapsible=1;childLayout=tableLayout;fixedRows=1;rowLines=0;fontStyle=1;align=center;resizeLast=1;" vertex="1" parent="0l9OWkSnHtWUdckkpkIx-1">
                    <mxGeometry x="60" y="810" width="190" height="150" as="geometry"/>
                </mxCell>
                <mxCell id="c7eTBnX2TVwpB23jek4l-189" value="" style="shape=partialRectangle;collapsible=0;dropTarget=0;pointerEvents=0;fillColor=none;top=0;left=0;bottom=1;right=0;points=[[0,0.5],[1,0.5]];portConstraint=eastwest;" vertex="1" parent="c7eTBnX2TVwpB23jek4l-188">
                    <mxGeometry y="30" width="190" height="30" as="geometry"/>
                </mxCell>
                <mxCell id="c7eTBnX2TVwpB23jek4l-190" value="PK" style="shape=partialRectangle;connectable=0;fillColor=none;top=0;left=0;bottom=0;right=0;fontStyle=1;overflow=hidden;" vertex="1" parent="c7eTBnX2TVwpB23jek4l-189">
                    <mxGeometry width="30" height="30" as="geometry">
                        <mxRectangle width="30" height="30" as="alternateBounds"/>
                    </mxGeometry>
                </mxCell>
                <mxCell id="c7eTBnX2TVwpB23jek4l-191" value="ID" style="shape=partialRectangle;connectable=0;fillColor=none;top=0;left=0;bottom=0;right=0;align=left;spacingLeft=6;fontStyle=5;overflow=hidden;" vertex="1" parent="c7eTBnX2TVwpB23jek4l-189">
                    <mxGeometry x="30" width="160" height="30" as="geometry">
                        <mxRectangle width="160" height="30" as="alternateBounds"/>
                    </mxGeometry>
                </mxCell>
                <mxCell id="c7eTBnX2TVwpB23jek4l-192" value="" style="shape=partialRectangle;collapsible=0;dropTarget=0;pointerEvents=0;fillColor=none;top=0;left=0;bottom=0;right=0;points=[[0,0.5],[1,0.5]];portConstraint=eastwest;" vertex="1" parent="c7eTBnX2TVwpB23jek4l-188">
                    <mxGeometry y="60" width="190" height="30" as="geometry"/>
                </mxCell>
                <mxCell id="c7eTBnX2TVwpB23jek4l-193" value="" style="shape=partialRectangle;connectable=0;fillColor=none;top=0;left=0;bottom=0;right=0;editable=1;overflow=hidden;" vertex="1" parent="c7eTBnX2TVwpB23jek4l-192">
                    <mxGeometry width="30" height="30" as="geometry">
                        <mxRectangle width="30" height="30" as="alternateBounds"/>
                    </mxGeometry>
                </mxCell>
                <mxCell id="c7eTBnX2TVwpB23jek4l-194" value="name" style="shape=partialRectangle;connectable=0;fillColor=none;top=0;left=0;bottom=0;right=0;align=left;spacingLeft=6;overflow=hidden;" vertex="1" parent="c7eTBnX2TVwpB23jek4l-192">
                    <mxGeometry x="30" width="160" height="30" as="geometry">
                        <mxRectangle width="160" height="30" as="alternateBounds"/>
                    </mxGeometry>
                </mxCell>
                <mxCell id="c7eTBnX2TVwpB23jek4l-195" value="" style="shape=partialRectangle;collapsible=0;dropTarget=0;pointerEvents=0;fillColor=none;top=0;left=0;bottom=0;right=0;points=[[0,0.5],[1,0.5]];portConstraint=eastwest;" vertex="1" parent="c7eTBnX2TVwpB23jek4l-188">
                    <mxGeometry y="90" width="190" height="30" as="geometry"/>
                </mxCell>
                <mxCell id="c7eTBnX2TVwpB23jek4l-196" value="" style="shape=partialRectangle;connectable=0;fillColor=none;top=0;left=0;bottom=0;right=0;editable=1;overflow=hidden;" vertex="1" parent="c7eTBnX2TVwpB23jek4l-195">
                    <mxGeometry width="30" height="30" as="geometry">
                        <mxRectangle width="30" height="30" as="alternateBounds"/>
                    </mxGeometry>
                </mxCell>
                <mxCell id="c7eTBnX2TVwpB23jek4l-197" value="update_time" style="shape=partialRectangle;connectable=0;fillColor=none;top=0;left=0;bottom=0;right=0;align=left;spacingLeft=6;overflow=hidden;" vertex="1" parent="c7eTBnX2TVwpB23jek4l-195">
                    <mxGeometry x="30" width="160" height="30" as="geometry">
                        <mxRectangle width="160" height="30" as="alternateBounds"/>
                    </mxGeometry>
                </mxCell>
                <mxCell id="c7eTBnX2TVwpB23jek4l-198" value="" style="shape=partialRectangle;collapsible=0;dropTarget=0;pointerEvents=0;fillColor=none;top=0;left=0;bottom=0;right=0;points=[[0,0.5],[1,0.5]];portConstraint=eastwest;" vertex="1" parent="c7eTBnX2TVwpB23jek4l-188">
                    <mxGeometry y="120" width="190" height="30" as="geometry"/>
                </mxCell>
                <mxCell id="c7eTBnX2TVwpB23jek4l-199" value="" style="shape=partialRectangle;connectable=0;fillColor=none;top=0;left=0;bottom=0;right=0;editable=1;overflow=hidden;" vertex="1" parent="c7eTBnX2TVwpB23jek4l-198">
                    <mxGeometry width="30" height="30" as="geometry">
                        <mxRectangle width="30" height="30" as="alternateBounds"/>
                    </mxGeometry>
                </mxCell>
                <mxCell id="c7eTBnX2TVwpB23jek4l-200" value="creation_time" style="shape=partialRectangle;connectable=0;fillColor=none;top=0;left=0;bottom=0;right=0;align=left;spacingLeft=6;overflow=hidden;" vertex="1" parent="c7eTBnX2TVwpB23jek4l-198">
                    <mxGeometry x="30" width="160" height="30" as="geometry">
                        <mxRectangle width="160" height="30" as="alternateBounds"/>
                    </mxGeometry>
                </mxCell>
                <mxCell id="c7eTBnX2TVwpB23jek4l-201" style="edgeStyle=orthogonalEdgeStyle;rounded=0;orthogonalLoop=1;jettySize=auto;html=1;entryX=0.5;entryY=0;entryDx=0;entryDy=0;" edge="1" parent="0l9OWkSnHtWUdckkpkIx-1" source="c7eTBnX2TVwpB23jek4l-202" target="c7eTBnX2TVwpB23jek4l-188">
                    <mxGeometry relative="1" as="geometry"/>
                </mxCell>
                <mxCell id="c7eTBnX2TVwpB23jek4l-202" value="defined" style="shape=table;startSize=30;container=1;collapsible=1;childLayout=tableLayout;fixedRows=1;rowLines=0;fontStyle=1;align=center;resizeLast=1;" vertex="1" parent="0l9OWkSnHtWUdckkpkIx-1">
                    <mxGeometry x="65" y="625.76" width="180" height="130" as="geometry"/>
                </mxCell>
                <mxCell id="c7eTBnX2TVwpB23jek4l-203" value="" style="shape=partialRectangle;collapsible=0;dropTarget=0;pointerEvents=0;fillColor=none;top=0;left=0;bottom=0;right=0;points=[[0,0.5],[1,0.5]];portConstraint=eastwest;" vertex="1" parent="c7eTBnX2TVwpB23jek4l-202">
                    <mxGeometry y="30" width="180" height="30" as="geometry"/>
                </mxCell>
                <mxCell id="c7eTBnX2TVwpB23jek4l-204" value="PK,FK1" style="shape=partialRectangle;connectable=0;fillColor=none;top=0;left=0;bottom=0;right=0;fontStyle=1;overflow=hidden;" vertex="1" parent="c7eTBnX2TVwpB23jek4l-203">
                    <mxGeometry width="60" height="30" as="geometry">
                        <mxRectangle width="60" height="30" as="alternateBounds"/>
                    </mxGeometry>
                </mxCell>
                <mxCell id="c7eTBnX2TVwpB23jek4l-205" value="ID_media" style="shape=partialRectangle;connectable=0;fillColor=none;top=0;left=0;bottom=0;right=0;align=left;spacingLeft=6;fontStyle=5;overflow=hidden;" vertex="1" parent="c7eTBnX2TVwpB23jek4l-203">
                    <mxGeometry x="60" width="120" height="30" as="geometry">
                        <mxRectangle width="120" height="30" as="alternateBounds"/>
                    </mxGeometry>
                </mxCell>
                <mxCell id="c7eTBnX2TVwpB23jek4l-206" value="" style="shape=partialRectangle;collapsible=0;dropTarget=0;pointerEvents=0;fillColor=none;top=0;left=0;bottom=1;right=0;points=[[0,0.5],[1,0.5]];portConstraint=eastwest;" vertex="1" parent="c7eTBnX2TVwpB23jek4l-202">
                    <mxGeometry y="60" width="180" height="40" as="geometry"/>
                </mxCell>
                <mxCell id="c7eTBnX2TVwpB23jek4l-207" value="PK,FK2" style="shape=partialRectangle;connectable=0;fillColor=none;top=0;left=0;bottom=0;right=0;fontStyle=1;overflow=hidden;" vertex="1" parent="c7eTBnX2TVwpB23jek4l-206">
                    <mxGeometry width="60" height="40" as="geometry">
                        <mxRectangle width="60" height="40" as="alternateBounds"/>
                    </mxGeometry>
                </mxCell>
                <mxCell id="c7eTBnX2TVwpB23jek4l-208" value="ID_category" style="shape=partialRectangle;connectable=0;fillColor=none;top=0;left=0;bottom=0;right=0;align=left;spacingLeft=6;fontStyle=5;overflow=hidden;" vertex="1" parent="c7eTBnX2TVwpB23jek4l-206">
                    <mxGeometry x="60" width="120" height="40" as="geometry">
                        <mxRectangle width="120" height="40" as="alternateBounds"/>
                    </mxGeometry>
                </mxCell>
                <mxCell id="c7eTBnX2TVwpB23jek4l-209" value="" style="shape=partialRectangle;collapsible=0;dropTarget=0;pointerEvents=0;fillColor=none;top=0;left=0;bottom=0;right=0;points=[[0,0.5],[1,0.5]];portConstraint=eastwest;" vertex="1" parent="0l9OWkSnHtWUdckkpkIx-1">
                    <mxGeometry x="647" y="260" width="180" height="30" as="geometry"/>
                </mxCell>
                <mxCell id="c7eTBnX2TVwpB23jek4l-210" value="" style="shape=partialRectangle;connectable=0;fillColor=none;top=0;left=0;bottom=0;right=0;editable=1;overflow=hidden;" vertex="1" parent="c7eTBnX2TVwpB23jek4l-209">
                    <mxGeometry width="60" height="30" as="geometry">
                        <mxRectangle width="60" height="30" as="alternateBounds"/>
                    </mxGeometry>
                </mxCell>
                <mxCell id="c7eTBnX2TVwpB23jek4l-211" value="is_liked" style="shape=partialRectangle;connectable=0;fillColor=none;top=0;left=0;bottom=0;right=0;align=left;spacingLeft=6;overflow=hidden;" vertex="1" parent="c7eTBnX2TVwpB23jek4l-209">
                    <mxGeometry x="60" width="120" height="30" as="geometry">
                        <mxRectangle width="120" height="30" as="alternateBounds"/>
                    </mxGeometry>
                </mxCell>
            </root>
        </mxGraphModel>
    </diagram>
</mxfile>